<svg width="20" height="20" viewBox="0 0 20 20" fill="none" xmlns="http://www.w3.org/2000/svg">
<path fill-rule="evenodd" clip-rule="evenodd" d="M8.99224 3.65591L8.92291 3.57741C8.62251 3.277 8.14982 3.25389 7.82291 3.50808L7.7444 3.57741L1.91107 9.41074L1.87657 9.44737L1.8306 9.50391L1.77088 9.59661L1.72635 9.69055L1.69686 9.77833L1.67275 9.90158L1.66699 9.99999L1.66932 10.0627L1.68386 10.1673L1.70844 10.2601L1.74505 10.3527L1.78865 10.4339L1.85007 10.5212L1.91107 10.5893L7.7444 16.4226C8.06984 16.748 8.59748 16.748 8.92291 16.4226C9.22332 16.1222 9.24643 15.6495 8.99224 15.3226L8.92291 15.2441L4.51366 10.8333H17.5003C17.9606 10.8333 18.3337 10.4602 18.3337 9.99999C18.3337 9.53976 17.9606 9.16666 17.5003 9.16666H4.51199L8.92291 4.75592C9.22332 4.45551 9.24643 3.98282 8.99224 3.65591L8.92291 3.57741L8.99224 3.65591Z" fill="#1A1D1B"/>
</svg>
