<svg width="20" height="20" viewBox="0 0 20 20" fill="none" xmlns="http://www.w3.org/2000/svg">
<path fill-rule="evenodd" clip-rule="evenodd" d="M8.99175 3.65593L8.92243 3.57742C8.62202 3.27702 8.14933 3.25391 7.82242 3.5081L7.74392 3.57742L1.91058 9.41075L1.87608 9.44739L1.83012 9.50392L1.7704 9.59662L1.72586 9.69056L1.69637 9.77835L1.67226 9.9016L1.6665 10L1.66883 10.0627L1.68337 10.1673L1.70795 10.2601L1.74457 10.3527L1.78817 10.4339L1.84958 10.5212L1.91058 10.5893L7.74392 16.4226C8.06935 16.748 8.59699 16.748 8.92243 16.4226C9.22283 16.1222 9.24594 15.6495 8.99175 15.3226L8.92243 15.2441L4.51317 10.8333H17.4998C17.9601 10.8333 18.3332 10.4602 18.3332 10C18.3332 9.53977 17.9601 9.16668 17.4998 9.16668H4.5115L8.92243 4.75593C9.22283 4.45553 9.24594 3.98284 8.99175 3.65593L8.92243 3.57742L8.99175 3.65593Z" fill="#0061B7"/>
</svg>
