<svg width="20" height="20" viewBox="0 0 20 20" fill="none" xmlns="http://www.w3.org/2000/svg">
<path fill-rule="evenodd" clip-rule="evenodd" d="M4.70891 18.1327C4.16835 18.596 3.33325 18.212 3.33325 17.5V4.16666C3.33325 2.78594 4.45254 1.66666 5.83325 1.66666H14.1666C15.5473 1.66666 16.6666 2.78594 16.6666 4.16666V17.5C16.6666 18.212 15.8315 18.596 15.2909 18.1327L9.99992 13.5976L4.70891 18.1327ZM14.9999 15.6881V4.16666C14.9999 3.70642 14.6268 3.33332 14.1666 3.33332H5.83325C5.37301 3.33332 4.99992 3.70642 4.99992 4.16666V15.6881L9.45759 11.8673C9.76967 11.5998 10.2302 11.5998 10.5422 11.8673L14.9999 15.6881Z" fill="#0061B7"/>
</svg>
