<svg width="20" height="20" viewBox="0 0 20 20" fill="none" xmlns="http://www.w3.org/2000/svg">
<path fill-rule="evenodd" clip-rule="evenodd" d="M17.5003 14.1667C17.9606 14.1667 18.3337 14.5398 18.3337 15C18.3337 15.4602 17.9606 15.8333 17.5003 15.8333H2.50033C2.04009 15.8333 1.66699 15.4602 1.66699 15C1.66699 14.5398 2.04009 14.1667 2.50033 14.1667H17.5003ZM17.5003 9.16667C17.9606 9.16667 18.3337 9.53977 18.3337 10C18.3337 10.4602 17.9606 10.8333 17.5003 10.8333H2.50033C2.04009 10.8333 1.66699 10.4602 1.66699 10C1.66699 9.53977 2.04009 9.16667 2.50033 9.16667H17.5003ZM17.5003 4.16667C17.9606 4.16667 18.3337 4.53977 18.3337 5.00001C18.3337 5.46024 17.9606 5.83334 17.5003 5.83334H2.50033C2.04009 5.83334 1.66699 5.46024 1.66699 5.00001C1.66699 4.53977 2.04009 4.16667 2.50033 4.16667H17.5003Z" fill="#1A1D1B"/>
</svg>
