<svg width="20" height="20" viewBox="0 0 20 20" fill="none" xmlns="http://www.w3.org/2000/svg">
<path fill-rule="evenodd" clip-rule="evenodd" d="M6.95894 14.9998L3.02054 18.1506C2.4749 18.5871 1.66663 18.1986 1.66663 17.4998V4.1665C1.66663 2.78579 2.78591 1.6665 4.16663 1.6665H15.8333C17.214 1.6665 18.3333 2.78579 18.3333 4.1665V12.4998C18.3333 13.8805 17.214 14.9998 15.8333 14.9998H6.95894ZM3.33329 15.766L6.14605 13.5158C6.29381 13.3976 6.4774 13.3332 6.66663 13.3332H15.8333C16.2935 13.3332 16.6666 12.9601 16.6666 12.4998V4.1665C16.6666 3.70627 16.2935 3.33317 15.8333 3.33317H4.16663C3.70639 3.33317 3.33329 3.70627 3.33329 4.1665V15.766Z" fill="#747474"/>
</svg>
