<svg width="9" height="7" viewBox="0 0 9 7" fill="none" xmlns="http://www.w3.org/2000/svg">
<path d="M2.86 4.94L7.58 0.22C7.72667 0.073333 7.91333 0 8.14 0C8.36667 0 8.55333 0.073333 8.7 0.22C8.84666 0.366666 8.92 0.553333 8.92 0.78C8.92 1.00667 8.84666 1.19333 8.7 1.34L3.42 6.62C3.26 6.78 3.07333 6.86 2.86 6.86C2.64667 6.86 2.46 6.78 2.3 6.62L0.22 4.54C0.073333 4.39333 0 4.20667 0 3.98C0 3.75333 0.073333 3.56667 0.22 3.42C0.366666 3.27333 0.553333 3.2 0.78 3.2C1.00667 3.2 1.19333 3.27333 1.34 3.42L2.86 4.94Z" fill="#1A1D1B"/>
</svg>
