<svg width="20" height="20" viewBox="0 0 20 20" fill="none" xmlns="http://www.w3.org/2000/svg">
<path d="M12.2292 13.5625C12.3819 13.3819 12.4583 13.1769 12.4583 12.9475C12.4583 12.7186 12.3819 12.5278 12.2292 12.375L10.6875 10.8333H16.6667C16.9028 10.8333 17.1006 10.7533 17.26 10.5933C17.42 10.4339 17.5 10.2361 17.5 10C17.5 9.76389 17.42 9.56583 17.26 9.40583C17.1006 9.24639 16.9028 9.16667 16.6667 9.16667H10.6875L12.2292 7.625C12.3958 7.45833 12.4792 7.26056 12.4792 7.03167C12.4792 6.80222 12.3958 6.60417 12.2292 6.4375C12.0764 6.27083 11.8853 6.1875 11.6558 6.1875C11.4269 6.1875 11.2361 6.26389 11.0833 6.41667L8.08333 9.41667C8 9.5 7.94083 9.59028 7.90583 9.6875C7.87139 9.78472 7.85417 9.88889 7.85417 10C7.85417 10.1111 7.87139 10.2153 7.90583 10.3125C7.94083 10.4097 8 10.5 8.08333 10.5833L11.0833 13.5833C11.25 13.75 11.4444 13.8264 11.6667 13.8125C11.8889 13.7986 12.0764 13.7153 12.2292 13.5625ZM9.16667 17.5C9.40278 17.5 9.60056 17.42 9.76 17.26C9.92 17.1006 10 16.9028 10 16.6667C10 16.4306 9.92 16.2328 9.76 16.0733C9.60056 15.9133 9.40278 15.8333 9.16667 15.8333H4.16667V4.16667H9.16667C9.40278 4.16667 9.60056 4.08667 9.76 3.92667C9.92 3.76722 10 3.56944 10 3.33333C10 3.09722 9.92 2.89917 9.76 2.73917C9.60056 2.57972 9.40278 2.5 9.16667 2.5H4.16667C3.70833 2.5 3.31583 2.66306 2.98917 2.98917C2.66306 3.31583 2.5 3.70833 2.5 4.16667V15.8333C2.5 16.2917 2.66306 16.6842 2.98917 17.0108C3.31583 17.3369 3.70833 17.5 4.16667 17.5H9.16667Z" fill="#FF0000"/>
</svg>
