<svg width="20" height="20" viewBox="0 0 20 20" fill="none" xmlns="http://www.w3.org/2000/svg">
<path fill-rule="evenodd" clip-rule="evenodd" d="M4.70899 18.1328C4.16843 18.5961 3.33333 18.212 3.33333 17.5001V4.16675C3.33333 2.78604 4.45262 1.66675 5.83333 1.66675H14.1667C15.5474 1.66675 16.6667 2.78604 16.6667 4.16675V17.5001C16.6667 18.212 15.8316 18.5961 15.291 18.1328L9.99999 13.5976L4.70899 18.1328ZM15 15.6882V4.16675C15 3.70651 14.6269 3.33341 14.1667 3.33341H5.83333C5.37309 3.33341 4.99999 3.70651 4.99999 4.16675V15.6882L9.45767 11.8674C9.76974 11.5999 10.2302 11.5999 10.5423 11.8674L15 15.6882Z" fill="#1A1D1B"/>
</svg>
