<svg width="14" height="14" viewBox="0 0 14 14" fill="none" xmlns="http://www.w3.org/2000/svg">
<path fill-rule="evenodd" clip-rule="evenodd" d="M7.00033 9.33332C7.76231 9.33332 8.41054 9.82032 8.65077 10.5L12.2503 10.5C12.5725 10.5 12.8337 10.7612 12.8337 11.0833C12.8337 11.4055 12.5725 11.6667 12.2503 11.6667L8.65056 11.6672C8.41017 12.3466 7.76209 12.8333 7.00033 12.8333C6.23856 12.8333 5.59048 12.3466 5.35009 11.6672L1.75033 11.6667C1.42816 11.6667 1.16699 11.4055 1.16699 11.0833C1.16699 10.7612 1.42816 10.5 1.75033 10.5L5.34989 10.5C5.59011 9.82032 6.23835 9.33332 7.00033 9.33332ZM7.00033 10.5C6.67816 10.5 6.41699 10.7612 6.41699 11.0833C6.41699 11.4055 6.67816 11.6667 7.00033 11.6667C7.32249 11.6667 7.58366 11.4055 7.58366 11.0833C7.58366 10.7612 7.32249 10.5 7.00033 10.5ZM11.0837 5.24999C12.0502 5.24999 12.8337 6.03349 12.8337 6.99999C12.8337 7.96649 12.0502 8.74999 11.0837 8.74999C10.3219 8.74999 9.67381 8.26327 9.43342 7.58385L1.75033 7.58332C1.42816 7.58332 1.16699 7.32216 1.16699 6.99999C1.16699 6.67782 1.42816 6.41666 1.75033 6.41666L9.43322 6.41671C9.67344 5.73699 10.3217 5.24999 11.0837 5.24999ZM11.0837 6.41666C10.7615 6.41666 10.5003 6.67782 10.5003 6.99999C10.5003 7.32216 10.7615 7.58332 11.0837 7.58332C11.4058 7.58332 11.667 7.32216 11.667 6.99999C11.667 6.67782 11.4058 6.41666 11.0837 6.41666ZM2.91699 1.16666C3.68221 1.16666 4.33271 1.6578 4.57047 2.34205C4.60165 2.33606 4.634 2.33332 4.66699 2.33332H12.2503C12.5725 2.33332 12.8337 2.59449 12.8337 2.91666C12.8337 3.23882 12.5725 3.49999 12.2503 3.49999H4.66699C4.634 3.49999 4.60165 3.49725 4.57015 3.49199C4.33271 4.17552 3.68221 4.66666 2.91699 4.66666C1.95049 4.66666 1.16699 3.88315 1.16699 2.91666C1.16699 1.95016 1.95049 1.16666 2.91699 1.16666ZM2.91699 2.33332C2.59483 2.33332 2.33366 2.59449 2.33366 2.91666C2.33366 3.23882 2.59483 3.49999 2.91699 3.49999C3.23916 3.49999 3.50033 3.23882 3.50033 2.91666C3.50033 2.59449 3.23916 2.33332 2.91699 2.33332Z" fill="#1A1D1B"/>
</svg>
