<svg width="20" height="20" viewBox="0 0 20 20" fill="none" xmlns="http://www.w3.org/2000/svg">
<path fill-rule="evenodd" clip-rule="evenodd" d="M5.83332 15.4875L6.91073 14.4107C7.21114 14.1103 7.68383 14.0872 8.01074 14.3414L8.08925 14.4107C8.38965 14.7111 8.41276 15.1838 8.15857 15.5107L8.08925 15.5892L5.58925 18.0892L5.55261 18.1237L5.49608 18.1697L5.40337 18.2294L5.35257 18.2552L5.2847 18.2834L5.22165 18.3034L5.09788 18.3276L4.99999 18.3333L4.93166 18.33L4.83272 18.3164L4.73987 18.2918L4.64731 18.2552L4.56607 18.2116L4.50402 18.1697L4.41073 18.0892L1.91073 15.5892C1.5853 15.2638 1.5853 14.7361 1.91073 14.4107C2.21114 14.1103 2.68383 14.0872 3.01074 14.3414L3.08925 14.4107L4.16666 15.4875V4.51246L3.08925 5.58921L3.01074 5.65854C2.68383 5.91273 2.21114 5.88962 1.91073 5.58921C1.61033 5.28881 1.58722 4.81612 1.84141 4.48921L1.91073 4.4107L4.41073 1.9107L4.50402 1.83022L4.56607 1.78829L4.64731 1.74469L4.73987 1.70807L4.83272 1.68349L4.93166 1.66996L4.99999 1.66663L5.09788 1.67232L5.22165 1.6965L5.2847 1.71653L5.35257 1.74467L5.40337 1.77052L5.49608 1.83024L5.55261 1.87621L5.58925 1.9107L8.08925 4.4107L8.15857 4.48921C8.39157 4.78888 8.39157 5.21104 8.15857 5.51071L8.08925 5.58921L8.01074 5.65854C7.71107 5.89154 7.28891 5.89154 6.98924 5.65854L6.91073 5.58921L5.83332 4.51246V15.4875ZM17.5 15.8333C17.9602 15.8333 18.3333 16.2064 18.3333 16.6666C18.3333 17.1269 17.9602 17.5 17.5 17.5H10.8333C10.3731 17.5 9.99999 17.1269 9.99999 16.6666C9.99999 16.2064 10.3731 15.8333 10.8333 15.8333H17.5ZM17.5 9.16663C17.9602 9.16663 18.3333 9.53972 18.3333 9.99996C18.3333 10.4602 17.9602 10.8333 17.5 10.8333H10.8333C10.3731 10.8333 9.99999 10.4602 9.99999 9.99996C9.99999 9.53972 10.3731 9.16663 10.8333 9.16663H17.5ZM17.5 2.49996C17.9602 2.49996 18.3333 2.87306 18.3333 3.33329C18.3333 3.79353 17.9602 4.16663 17.5 4.16663H10.8333C10.3731 4.16663 9.99999 3.79353 9.99999 3.33329C9.99999 2.87306 10.3731 2.49996 10.8333 2.49996H17.5Z" fill="#1A1D1B"/>
</svg>
