<svg width="16" height="16" viewBox="0 0 16 16" fill="none" xmlns="http://www.w3.org/2000/svg">
<path fill-rule="evenodd" clip-rule="evenodd" d="M8.943 8.00016L12.4717 4.47149C12.7323 4.21083 12.7323 3.78949 12.4717 3.52883C12.211 3.26816 11.7897 3.26816 11.529 3.52883L8.00033 7.0575L4.47166 3.52883C4.211 3.26816 3.78966 3.26816 3.529 3.52883C3.26833 3.78949 3.26833 4.21083 3.529 4.47149L7.05766 8.00016L3.529 11.5288C3.26833 11.7895 3.26833 12.2108 3.529 12.4715C3.659 12.6015 3.82966 12.6668 4.00033 12.6668C4.171 12.6668 4.34166 12.6015 4.47166 12.4715L8.00033 8.94283L11.529 12.4715C11.659 12.6015 11.8297 12.6668 12.0003 12.6668C12.171 12.6668 12.3417 12.6015 12.4717 12.4715C12.7323 12.2108 12.7323 11.7895 12.4717 11.5288L8.943 8.00016Z" fill="#747474"/>
</svg>
