<svg width="20" height="20" viewBox="0 0 20 20" fill="none" xmlns="http://www.w3.org/2000/svg">
<path fill-rule="evenodd" clip-rule="evenodd" d="M9.99967 1.25C14.1418 1.25 16.6663 4.57144 16.6663 8.66864C16.6663 11.3799 15.2311 15.0798 10.7899 18.2026L9.99967 18.75L9.52284 18.4209C4.87503 15.2132 3.33301 11.4429 3.33301 8.66864C3.33301 4.57144 5.85754 1.25 9.99967 1.25ZM9.99967 2.89859C6.77801 2.89859 4.99967 5.48193 4.99967 8.66864C4.99967 10.6707 6.08027 13.947 9.99967 16.7349C13.9191 13.947 14.9997 10.6707 14.9997 8.66864C14.9997 5.48193 13.2213 2.89859 9.99967 2.89859ZM9.99967 4.58333C11.8406 4.58333 13.333 6.07572 13.333 7.91667C13.333 9.75762 11.8406 11.25 9.99967 11.25C8.15873 11.25 6.66634 9.75762 6.66634 7.91667C6.66634 6.07572 8.15873 4.58333 9.99967 4.58333ZM9.99967 6.25C9.0792 6.25 8.33301 6.99619 8.33301 7.91667C8.33301 8.83714 9.0792 9.58333 9.99967 9.58333C10.9201 9.58333 11.6663 8.83714 11.6663 7.91667C11.6663 6.99619 10.9201 6.25 9.99967 6.25Z" fill="#0061B7"/>
</svg>
