<svg width="16" height="16" viewBox="0 0 16 16" fill="none" xmlns="http://www.w3.org/2000/svg">
<path d="M8.00033 9.33337C7.82351 9.33337 7.65395 9.40361 7.52892 9.52864C7.4039 9.65366 7.33366 9.82323 7.33366 10V11.3334C7.33366 11.5102 7.4039 11.6798 7.52892 11.8048C7.65395 11.9298 7.82351 12 8.00033 12C8.17714 12 8.34671 11.9298 8.47173 11.8048C8.59675 11.6798 8.66699 11.5102 8.66699 11.3334V10C8.66699 9.82323 8.59675 9.65366 8.47173 9.52864C8.34671 9.40361 8.17714 9.33337 8.00033 9.33337ZM8.25366 7.38671C8.13298 7.33075 7.99832 7.31218 7.86699 7.33337L7.74699 7.37337L7.62699 7.43337L7.52699 7.51337C7.46359 7.57724 7.41377 7.65329 7.38054 7.73693C7.34731 7.82057 7.33137 7.91007 7.33366 8.00004C7.33315 8.08778 7.34997 8.17475 7.38315 8.25598C7.41632 8.3372 7.4652 8.41108 7.52699 8.47337C7.59039 8.53407 7.66516 8.58164 7.74699 8.61337C7.82611 8.65069 7.91287 8.66896 8.00033 8.66671C8.08806 8.66721 8.17504 8.6504 8.25626 8.61722C8.33749 8.58404 8.41137 8.53516 8.47366 8.47337C8.53545 8.41108 8.58433 8.3372 8.61751 8.25598C8.65068 8.17475 8.6675 8.08778 8.66699 8.00004C8.6675 7.9123 8.65068 7.82533 8.61751 7.7441C8.58433 7.66288 8.53545 7.589 8.47366 7.52671C8.40886 7.46782 8.33445 7.42047 8.25366 7.38671ZM13.3337 5.96004C13.3267 5.8988 13.3133 5.83846 13.2937 5.78004V5.72004C13.2616 5.65149 13.2188 5.58848 13.167 5.53337L9.16699 1.53337C9.11188 1.48152 9.04887 1.43876 8.98033 1.40671H8.91366C8.84883 1.37204 8.77917 1.34732 8.70699 1.33337H4.66699C4.13656 1.33337 3.62785 1.54409 3.25278 1.91916C2.87771 2.29423 2.66699 2.80294 2.66699 3.33337V12.6667C2.66699 13.1971 2.87771 13.7058 3.25278 14.0809C3.62785 14.456 4.13656 14.6667 4.66699 14.6667H11.3337C11.8641 14.6667 12.3728 14.456 12.7479 14.0809C13.1229 13.7058 13.3337 13.1971 13.3337 12.6667V5.96004ZM9.33366 3.60671L11.0603 5.33337H10.0003C9.82351 5.33337 9.65395 5.26314 9.52892 5.13811C9.4039 5.01309 9.33366 4.84352 9.33366 4.66671V3.60671ZM12.0003 12.6667C12.0003 12.8435 11.9301 13.0131 11.8051 13.1381C11.68 13.2631 11.5105 13.3334 11.3337 13.3334H4.66699C4.49018 13.3334 4.32061 13.2631 4.19559 13.1381C4.07056 13.0131 4.00033 12.8435 4.00033 12.6667V3.33337C4.00033 3.15656 4.07056 2.98699 4.19559 2.86197C4.32061 2.73695 4.49018 2.66671 4.66699 2.66671H8.00033V4.66671C8.00033 5.19714 8.21104 5.70585 8.58611 6.08092C8.96118 6.45599 9.46989 6.66671 10.0003 6.66671H12.0003V12.6667Z" fill="#747474"/>
</svg>
