<svg width="18" height="18" viewBox="0 0 18 18" fill="none" xmlns="http://www.w3.org/2000/svg">
<path fill-rule="evenodd" clip-rule="evenodd" d="M7.16603 7.37404C7.37467 7.23494 7.5 7.00076 7.5 6.75V3.75C7.5 2.50736 6.49264 1.5 5.25 1.5H2.25C1.83579 1.5 1.5 1.83579 1.5 2.25C1.5 9.70584 8.29416 16.5 15.75 16.5C16.1642 16.5 16.5 16.1642 16.5 15.75V12.75C16.5 11.5074 15.4926 10.5 14.25 10.5H11.25C10.9992 10.5 10.7651 10.6253 10.626 10.834L9.19695 12.9775C7.64054 11.9711 6.27694 10.6419 5.22806 9.11172L5.02251 8.80305L7.16603 7.37404ZM11.6514 12H14.25C14.6642 12 15 12.3358 15 12.75V14.974C13.5471 14.8735 12.1291 14.4849 10.8066 13.8687L10.5031 13.7225L11.6514 12ZM3.026 3H5.25C5.66421 3 6 3.33579 6 3.75V6.34861L4.27753 7.49692C3.57662 6.08884 3.13428 4.5647 3.026 3Z" fill="#0061B7"/>
</svg>
