<svg width="25" height="24" viewBox="0 0 25 24" fill="none" xmlns="http://www.w3.org/2000/svg">
<path fill-rule="evenodd" clip-rule="evenodd" d="M22.5 19C22.5 20.6569 21.1569 22 19.5 22H5.5C3.84315 22 2.5 20.6569 2.5 19V5C2.5 3.34315 3.84315 2 5.5 2H9.5005C10.0525 2 10.5 2.44749 10.5 2.9995C10.5 3.55154 10.0525 3.99909 9.5005 3.9992L5.5 4C4.94772 4 4.5 4.44772 4.5 5V18.278L8.68627 12.4188C9.00017 11.9793 9.59949 11.8737 10.0412 12.159L10.1402 12.2318L15.285 16.518L16.6679 14.4453C16.9947 13.9552 17.6636 13.8585 18.1141 14.2106L18.2071 14.2929L20.5 16.585V15C20.5 14.4477 20.9477 14 21.5 14C22.0523 14 22.5 14.4477 22.5 15V19ZM9.687 14.458L5.728 20H19.5C19.9289 20 20.2948 19.73 20.4368 19.3506L17.655 16.57L16.3321 18.5547C16.0243 19.0163 15.4063 19.1338 14.954 18.838L14.8598 18.7682L9.687 14.458ZM17.5 2C18.0523 2 18.5 2.44772 18.5 3V6H21.5C22.0523 6 22.5 6.44772 22.5 7C22.5 7.55228 22.0523 8 21.5 8H18.5V11C18.5 11.5523 18.0523 12 17.5 12C16.9477 12 16.5 11.5523 16.5 11V8H13.5C12.9477 8 12.5 7.55228 12.5 7C12.5 6.44772 12.9477 6 13.5 6H16.5V3C16.5 2.44772 16.9477 2 17.5 2ZM8.5 6C9.60457 6 10.5 6.89543 10.5 8C10.5 9.10457 9.60457 10 8.5 10C7.39543 10 6.5 9.10457 6.5 8C6.5 6.89543 7.39543 6 8.5 6Z" fill="#1A1D1B"/>
</svg>
