<svg width="16" height="16" viewBox="0 0 16 16" fill="none" xmlns="http://www.w3.org/2000/svg">
<g clip-path="url(#clip0_1049_9761)">
<path d="M6.75406 9.2457L11.8741 4.1257M5.54263 8.04227L7.96891 10.4686C8.02092 10.5206 8.06218 10.5823 8.09032 10.6502C8.11847 10.7182 8.13296 10.791 8.13296 10.8646C8.13296 10.9381 8.11847 11.0109 8.09032 11.0789C8.06218 11.1468 8.02092 11.2086 7.96891 11.2606L4.39749 14.832C4.18523 15.0443 3.93321 15.2128 3.65583 15.3277C3.37846 15.4426 3.08116 15.5018 2.78091 15.5018C2.48067 15.5018 2.18337 15.4426 1.906 15.3277C1.62862 15.2128 1.3766 15.0443 1.16434 14.832C0.735838 14.4033 0.495117 13.8221 0.495117 13.216C0.495117 12.6099 0.735838 12.0286 1.16434 11.6L4.73691 8.02741C4.79025 7.97399 4.85383 7.9319 4.92384 7.90367C4.99386 7.87544 5.06885 7.86166 5.14433 7.86316C5.2198 7.86465 5.29419 7.88139 5.36303 7.91237C5.43187 7.94334 5.49374 7.98792 5.54492 8.04341L5.54263 8.04227ZM12.2741 4.51427L11.4855 3.7257V2.14855L13.8512 0.571411L15.4283 2.14855L13.8512 4.51427H12.2741Z" stroke="#747474" stroke-width="1.14286" stroke-linecap="round" stroke-linejoin="round"/>
</g>
<defs>
<clipPath id="clip0_1049_9761">
<rect width="16" height="16" fill="white"/>
</clipPath>
</defs>
</svg>
