<svg width="56" height="16" viewBox="0 0 56 16" fill="none" xmlns="http://www.w3.org/2000/svg">
<g clip-path="url(#clip0_1028_9417)">
<path d="M6.09759 15.3C5.84621 15.3 5.63392 15.1134 5.60171 14.864L5.348 12.9C5.18007 12.8375 5.02169 12.7625 4.87288 12.675C4.72406 12.5875 4.57887 12.4937 4.43729 12.3937L2.52868 13.1697C2.30013 13.2627 2.03796 13.175 1.91129 12.9633L0.23383 10.1596C0.10131 9.93807 0.159164 9.6521 0.36736 9.49954L1.99581 8.30624C1.98289 8.21874 1.97643 8.13424 1.97643 8.05274V7.54724C1.97643 7.46574 1.98289 7.38124 1.99581 7.29374L0.36736 6.10043C0.159164 5.94787 0.10131 5.66191 0.23383 5.44041L1.91129 2.63671C2.03796 2.42499 2.30013 2.33732 2.52868 2.43024L4.43729 3.20624C4.57938 3.10624 4.72794 3.01249 4.88295 2.92499C5.03797 2.83749 5.19298 2.76249 5.348 2.69999L5.60171 0.73593C5.63392 0.486623 5.84621 0.299988 6.09759 0.299988H9.48136C9.73274 0.299988 9.94503 0.486624 9.97724 0.735931L10.231 2.69999C10.3989 2.76249 10.5573 2.83749 10.7061 2.92499C10.8549 3.01249 11.0001 3.10624 11.1417 3.20624L13.0503 2.43024C13.2788 2.33732 13.541 2.42499 13.6677 2.63671L15.3451 5.44041C15.4776 5.66191 15.4198 5.94787 15.2116 6.10043L13.5831 7.29374C13.5961 7.38124 13.6025 7.46574 13.6025 7.54724V8.05274C13.6025 8.13424 13.5896 8.21874 13.5638 8.30624L15.1922 9.49954C15.4004 9.65211 15.4583 9.93807 15.3257 10.1596L13.6489 12.9622C13.522 13.1744 13.259 13.2619 13.0302 13.1681L11.1417 12.3937C10.9996 12.4937 10.851 12.5875 10.696 12.675C10.541 12.7625 10.386 12.8375 10.231 12.9L9.97724 14.864C9.94503 15.1134 9.73274 15.3 9.48136 15.3H6.09759ZM7.82823 10.425C8.57747 10.425 9.2169 10.1687 9.74653 9.65624C10.2762 9.14374 10.541 8.52499 10.541 7.79999C10.541 7.07499 10.2762 6.45624 9.74653 5.94374C9.2169 5.43124 8.57747 5.17499 7.82823 5.17499C7.06607 5.17499 6.42328 5.43124 5.89985 5.94374C5.37642 6.45624 5.11496 7.07499 5.11548 7.79999C5.11548 8.52499 5.37693 9.14374 5.89985 9.65624C6.42276 10.1687 7.06556 10.425 7.82823 10.425Z" fill="#06C960"/>
</g>
<g clip-path="url(#clip1_1028_9417)">
<path d="M26.0976 15.3C25.8462 15.3 25.6339 15.1134 25.6017 14.864L25.348 12.9C25.1801 12.8375 25.0217 12.7625 24.8729 12.675C24.7241 12.5875 24.5789 12.4937 24.4373 12.3937L22.5287 13.1697C22.3001 13.2627 22.038 13.175 21.9113 12.9633L20.2338 10.1596C20.1013 9.93807 20.1592 9.6521 20.3674 9.49954L21.9958 8.30624C21.9829 8.21874 21.9764 8.13424 21.9764 8.05274V7.54724C21.9764 7.46574 21.9829 7.38124 21.9958 7.29374L20.3674 6.10043C20.1592 5.94787 20.1013 5.66191 20.2338 5.44041L21.9113 2.63671C22.038 2.42499 22.3001 2.33732 22.5287 2.43024L24.4373 3.20624C24.5794 3.10624 24.7279 3.01249 24.883 2.92499C25.038 2.83749 25.193 2.76249 25.348 2.69999L25.6017 0.73593C25.6339 0.486623 25.8462 0.299988 26.0976 0.299988H29.4814C29.7327 0.299988 29.945 0.486624 29.9772 0.735931L30.231 2.69999C30.3989 2.76249 30.5573 2.83749 30.7061 2.92499C30.8549 3.01249 31.0001 3.10624 31.1417 3.20624L33.0503 2.43024C33.2788 2.33732 33.541 2.42499 33.6677 2.63671L35.3451 5.44041C35.4776 5.66191 35.4198 5.94787 35.2116 6.10043L33.5831 7.29374C33.5961 7.38124 33.6025 7.46574 33.6025 7.54724V8.05274C33.6025 8.13424 33.5896 8.21874 33.5638 8.30624L35.1922 9.49954C35.4004 9.65211 35.4583 9.93807 35.3257 10.1596L33.6489 12.9622C33.522 13.1744 33.259 13.2619 33.0302 13.1681L31.1417 12.3937C30.9996 12.4937 30.851 12.5875 30.696 12.675C30.541 12.7625 30.386 12.8375 30.231 12.9L29.9772 14.864C29.945 15.1134 29.7327 15.3 29.4814 15.3H26.0976ZM27.8282 10.425C28.5775 10.425 29.2169 10.1687 29.7465 9.65624C30.2762 9.14374 30.541 8.52499 30.541 7.79999C30.541 7.07499 30.2762 6.45624 29.7465 5.94374C29.2169 5.43124 28.5775 5.17499 27.8282 5.17499C27.0661 5.17499 26.4233 5.43124 25.8998 5.94374C25.3764 6.45624 25.115 7.07499 25.1155 7.79999C25.1155 8.52499 25.3769 9.14374 25.8998 9.65624C26.4228 10.1687 27.0656 10.425 27.8282 10.425Z" fill="#06C960"/>
</g>
<g clip-path="url(#clip2_1028_9417)">
<path d="M46.0976 15.3C45.8462 15.3 45.6339 15.1134 45.6017 14.864L45.348 12.9C45.1801 12.8375 45.0217 12.7625 44.8729 12.675C44.7241 12.5875 44.5789 12.4937 44.4373 12.3937L42.5287 13.1697C42.3001 13.2627 42.038 13.175 41.9113 12.9633L40.2338 10.1596C40.1013 9.93807 40.1592 9.6521 40.3674 9.49954L41.9958 8.30624C41.9829 8.21874 41.9764 8.13424 41.9764 8.05274V7.54724C41.9764 7.46574 41.9829 7.38124 41.9958 7.29374L40.3674 6.10043C40.1592 5.94787 40.1013 5.66191 40.2338 5.44041L41.9113 2.63671C42.038 2.42499 42.3001 2.33732 42.5287 2.43024L44.4373 3.20624C44.5794 3.10624 44.7279 3.01249 44.883 2.92499C45.038 2.83749 45.193 2.76249 45.348 2.69999L45.6017 0.73593C45.6339 0.486623 45.8462 0.299988 46.0976 0.299988H49.4814C49.7327 0.299988 49.945 0.486624 49.9772 0.735931L50.231 2.69999C50.3989 2.76249 50.5573 2.83749 50.7061 2.92499C50.8549 3.01249 51.0001 3.10624 51.1417 3.20624L53.0503 2.43024C53.2788 2.33732 53.541 2.42499 53.6677 2.63671L55.3451 5.44041C55.4776 5.66191 55.4198 5.94787 55.2116 6.10043L53.5831 7.29374C53.5961 7.38124 53.6025 7.46574 53.6025 7.54724V8.05274C53.6025 8.13424 53.5896 8.21874 53.5638 8.30624L55.1922 9.49954C55.4004 9.65211 55.4583 9.93807 55.3257 10.1596L53.6489 12.9622C53.522 13.1744 53.259 13.2619 53.0302 13.1681L51.1417 12.3937C50.9996 12.4937 50.851 12.5875 50.696 12.675C50.541 12.7625 50.386 12.8375 50.231 12.9L49.9772 14.864C49.945 15.1134 49.7327 15.3 49.4814 15.3H46.0976ZM47.8282 10.425C48.5775 10.425 49.2169 10.1687 49.7465 9.65624C50.2762 9.14374 50.541 8.52499 50.541 7.79999C50.541 7.07499 50.2762 6.45624 49.7465 5.94374C49.2169 5.43124 48.5775 5.17499 47.8282 5.17499C47.0661 5.17499 46.4233 5.43124 45.8998 5.94374C45.3764 6.45624 45.115 7.07499 45.1155 7.79999C45.1155 8.52499 45.3769 9.14374 45.8998 9.65624C46.4228 10.1687 47.0656 10.425 47.8282 10.425Z" fill="#06C960"/>
</g>
<defs>
<clipPath id="clip0_1028_9417">
<rect width="16" height="16" fill="white"/>
</clipPath>
<clipPath id="clip1_1028_9417">
<rect width="16" height="16" fill="white" transform="translate(20)"/>
</clipPath>
<clipPath id="clip2_1028_9417">
<rect width="16" height="16" fill="white" transform="translate(40)"/>
</clipPath>
</defs>
</svg>
