<svg width="44" height="12" viewBox="0 0 44 12" fill="none" xmlns="http://www.w3.org/2000/svg">
<g clip-path="url(#clip0_1024_9105)">
<path d="M4.68308 11.475C4.43171 11.475 4.21941 11.2883 4.18721 11.039L4.011 9.67498C3.88505 9.6281 3.76627 9.57185 3.65466 9.50623C3.54305 9.4406 3.43415 9.37029 3.32797 9.29529L1.99581 9.83691C1.76726 9.92983 1.5051 9.84216 1.37843 9.63044L0.233831 7.71736C0.101311 7.49587 0.159164 7.20991 0.36736 7.05734L1.49686 6.22966C1.48717 6.16404 1.48233 6.10066 1.48233 6.03954V5.66041C1.48233 5.59929 1.48717 5.53591 1.49686 5.47029L0.36736 4.64261C0.159164 4.49005 0.10131 4.20408 0.23383 3.98259L1.37843 2.06951C1.5051 1.85779 1.76726 1.77012 1.99581 1.86304L3.32797 2.40466C3.43454 2.32966 3.54595 2.25935 3.66222 2.19373C3.77848 2.1281 3.89474 2.07185 4.011 2.02498L4.18721 0.660918C4.21941 0.411611 4.43171 0.224976 4.68308 0.224976H7.00113C7.25251 0.224976 7.4648 0.411612 7.49701 0.660919L7.67321 2.02498C7.79916 2.07185 7.91794 2.1281 8.02955 2.19373C8.14116 2.25935 8.25006 2.32966 8.35625 2.40466L9.6884 1.86304C9.91695 1.77012 10.1791 1.85779 10.3058 2.06951L11.4504 3.98259C11.5829 4.20408 11.525 4.49005 11.3168 4.64261L10.1874 5.47029C10.197 5.53591 10.2019 5.59929 10.2019 5.66041V6.03954C10.2019 6.10066 10.1922 6.16404 10.1728 6.22966L11.3023 7.05734C11.5105 7.2099 11.5684 7.49587 11.4358 7.71736L10.2919 9.62934C10.165 9.84154 9.90195 9.92906 9.67316 9.83525L8.35625 9.29529C8.24967 9.37029 8.13826 9.4406 8.022 9.50623C7.90574 9.57185 7.78947 9.6281 7.67321 9.67498L7.49701 11.039C7.4648 11.2883 7.25251 11.475 7.00113 11.475H4.68308ZM5.87117 7.81873C6.4331 7.81873 6.91267 7.62654 7.3099 7.24216C7.70712 6.85779 7.90573 6.39373 7.90573 5.84998C7.90573 5.30623 7.70712 4.84216 7.3099 4.45779C6.91267 4.07341 6.4331 3.88123 5.87117 3.88123C5.29956 3.88123 4.81746 4.07341 4.42489 4.45779C4.03231 4.84216 3.83622 5.30623 3.83661 5.84998C3.83661 6.39373 4.0327 6.85779 4.42489 7.24216C4.81707 7.62654 5.29917 7.81873 5.87117 7.81873Z" fill="#FFB800"/>
</g>
<g clip-path="url(#clip1_1024_9105)">
<path d="M20.6831 11.475C20.4317 11.475 20.2194 11.2883 20.1872 11.039L20.011 9.67498C19.885 9.6281 19.7663 9.57185 19.6547 9.50623C19.543 9.4406 19.4342 9.37029 19.328 9.29529L17.9958 9.83691C17.7673 9.92983 17.5051 9.84216 17.3784 9.63044L16.2338 7.71736C16.1013 7.49587 16.1592 7.20991 16.3674 7.05734L17.4969 6.22966C17.4872 6.16404 17.4823 6.10066 17.4823 6.03954V5.66041C17.4823 5.59929 17.4872 5.53591 17.4969 5.47029L16.3674 4.64261C16.1592 4.49005 16.1013 4.20408 16.2338 3.98259L17.3784 2.06951C17.5051 1.85779 17.7673 1.77012 17.9958 1.86304L19.328 2.40466C19.4345 2.32966 19.546 2.25935 19.6622 2.19373C19.7785 2.1281 19.8947 2.07185 20.011 2.02498L20.1872 0.660918C20.2194 0.411611 20.4317 0.224976 20.6831 0.224976H23.0011C23.2525 0.224976 23.4648 0.411612 23.497 0.660919L23.6732 2.02498C23.7992 2.07185 23.9179 2.1281 24.0296 2.19373C24.1412 2.25935 24.2501 2.32966 24.3562 2.40466L25.6884 1.86304C25.9169 1.77012 26.1791 1.85779 26.3058 2.06951L27.4504 3.98259C27.5829 4.20408 27.525 4.49005 27.3168 4.64261L26.1874 5.47029C26.197 5.53591 26.2019 5.59929 26.2019 5.66041V6.03954C26.2019 6.10066 26.1922 6.16404 26.1728 6.22966L27.3023 7.05734C27.5105 7.2099 27.5684 7.49587 27.4358 7.71736L26.2919 9.62934C26.165 9.84154 25.9019 9.92906 25.6732 9.83525L24.3562 9.29529C24.2497 9.37029 24.1383 9.4406 24.022 9.50623C23.9057 9.57185 23.7895 9.6281 23.6732 9.67498L23.497 11.039C23.4648 11.2883 23.2525 11.475 23.0011 11.475H20.6831ZM21.8712 7.81873C22.4331 7.81873 22.9127 7.62654 23.3099 7.24216C23.7071 6.85779 23.9057 6.39373 23.9057 5.84998C23.9057 5.30623 23.7071 4.84216 23.3099 4.45779C22.9127 4.07341 22.4331 3.88123 21.8712 3.88123C21.2996 3.88123 20.8175 4.07341 20.4249 4.45779C20.0323 4.84216 19.8362 5.30623 19.8366 5.84998C19.8366 6.39373 20.0327 6.85779 20.4249 7.24216C20.8171 7.62654 21.2992 7.81873 21.8712 7.81873Z" fill="#FFB800"/>
</g>
<g clip-path="url(#clip2_1024_9105)">
<path d="M36.6831 11.475C36.4317 11.475 36.2194 11.2883 36.1872 11.039L36.011 9.67498C35.885 9.6281 35.7663 9.57185 35.6547 9.50623C35.543 9.4406 35.4342 9.37029 35.328 9.29529L33.9958 9.83691C33.7673 9.92983 33.5051 9.84216 33.3784 9.63044L32.2338 7.71736C32.1013 7.49587 32.1592 7.20991 32.3674 7.05734L33.4969 6.22966C33.4872 6.16404 33.4823 6.10066 33.4823 6.03954V5.66041C33.4823 5.59929 33.4872 5.53591 33.4969 5.47029L32.3674 4.64261C32.1592 4.49005 32.1013 4.20408 32.2338 3.98259L33.3784 2.06951C33.5051 1.85779 33.7673 1.77012 33.9958 1.86304L35.328 2.40466C35.4345 2.32966 35.546 2.25935 35.6622 2.19373C35.7785 2.1281 35.8947 2.07185 36.011 2.02498L36.1872 0.660918C36.2194 0.411611 36.4317 0.224976 36.6831 0.224976H39.0011C39.2525 0.224976 39.4648 0.411612 39.497 0.660919L39.6732 2.02498C39.7992 2.07185 39.9179 2.1281 40.0296 2.19373C40.1412 2.25935 40.2501 2.32966 40.3562 2.40466L41.6884 1.86304C41.9169 1.77012 42.1791 1.85779 42.3058 2.06951L43.4504 3.98259C43.5829 4.20408 43.525 4.49005 43.3168 4.64261L42.1874 5.47029C42.197 5.53591 42.2019 5.59929 42.2019 5.66041V6.03954C42.2019 6.10066 42.1922 6.16404 42.1728 6.22966L43.3023 7.05734C43.5105 7.2099 43.5684 7.49587 43.4358 7.71736L42.2919 9.62934C42.165 9.84154 41.9019 9.92906 41.6732 9.83525L40.3562 9.29529C40.2497 9.37029 40.1383 9.4406 40.022 9.50623C39.9057 9.57185 39.7895 9.6281 39.6732 9.67498L39.497 11.039C39.4648 11.2883 39.2525 11.475 39.0011 11.475H36.6831ZM37.8712 7.81873C38.4331 7.81873 38.9127 7.62654 39.3099 7.24216C39.7071 6.85779 39.9057 6.39373 39.9057 5.84998C39.9057 5.30623 39.7071 4.84216 39.3099 4.45779C38.9127 4.07341 38.4331 3.88123 37.8712 3.88123C37.2996 3.88123 36.8175 4.07341 36.4249 4.45779C36.0323 4.84216 35.8362 5.30623 35.8366 5.84998C35.8366 6.39373 36.0327 6.85779 36.4249 7.24216C36.8171 7.62654 37.2992 7.81873 37.8712 7.81873Z" fill="#D9D9D9"/>
</g>
<defs>
<clipPath id="clip0_1024_9105">
<rect width="12" height="12" fill="white"/>
</clipPath>
<clipPath id="clip1_1024_9105">
<rect width="12" height="12" fill="white" transform="translate(16)"/>
</clipPath>
<clipPath id="clip2_1024_9105">
<rect width="12" height="12" fill="white" transform="translate(32)"/>
</clipPath>
</defs>
</svg>
