<svg width="18" height="18" viewBox="0 0 18 18" fill="none" xmlns="http://www.w3.org/2000/svg">
<path fill-rule="evenodd" clip-rule="evenodd" d="M9 1.5C13.1421 1.5 16.5 4.85786 16.5 9C16.5 13.1421 13.1421 16.5 9 16.5C4.85786 16.5 1.5 13.1421 1.5 9C1.5 4.85786 4.85786 1.5 9 1.5ZM9 3C5.68629 3 3 5.68629 3 9C3 12.3137 5.68629 15 9 15C12.3137 15 15 12.3137 15 9C15 5.68629 12.3137 3 9 3ZM11.4697 6.21967L7.5 10.1893L6.53033 9.21967C6.23744 8.92678 5.76256 8.92678 5.46967 9.21967C5.17678 9.51256 5.17678 9.98744 5.46967 10.2803L6.96967 11.7803C7.26256 12.0732 7.73744 12.0732 8.03033 11.7803L12.5303 7.28033C12.8232 6.98744 12.8232 6.51256 12.5303 6.21967C12.2374 5.92678 11.7626 5.92678 11.4697 6.21967Z" fill="#0061B7"/>
</svg>
