<svg width="20" height="20" viewBox="0 0 20 20" fill="none" xmlns="http://www.w3.org/2000/svg">
<path fill-rule="evenodd" clip-rule="evenodd" d="M4.1665 18.3334C2.78579 18.3334 1.6665 17.2141 1.6665 15.8334V10.8334C1.6665 9.45264 2.78579 8.33335 4.1665 8.33335H5.31734L7.96049 3.04865C8.35906 2.25151 9.14932 1.73071 10.0304 1.6722L10.1966 1.66669H10.4165C11.5211 1.66669 12.4249 2.5263 12.4954 3.61304L12.4998 3.75002V8.33335H15.8317C15.9963 8.33335 16.1606 8.34962 16.322 8.3819C17.6276 8.64301 18.4906 9.877 18.3078 11.1788L18.2832 11.3236L17.2832 16.3236C17.0592 17.4435 16.1075 18.2627 14.9798 18.329L14.8317 18.3334H4.1665ZM4.99984 10H4.1665C3.70627 10 3.33317 10.3731 3.33317 10.8334V15.8334C3.33317 16.2936 3.70627 16.6667 4.1665 16.6667H4.99984V10ZM10.4165 3.33335H10.1966C9.91599 3.33335 9.65682 3.47426 9.50355 3.70386L9.4512 3.79401L6.75448 9.18746C6.71109 9.27424 6.6833 9.36771 6.67211 9.4636L6.6665 9.56013V16.6667H14.8317C15.1958 16.6667 15.5136 16.4311 15.624 16.0918L15.6489 15.9968L16.6489 10.9968C16.7391 10.5455 16.4464 10.1065 15.9951 10.0162L15.9138 10.0041L15.8317 10H12.4998C11.6212 10 10.9014 9.32012 10.8377 8.45774L10.8332 8.33335V3.75002C10.8332 3.54547 10.6858 3.37535 10.4914 3.34007L10.4165 3.33335Z" fill="#06C960"/>
</svg>
