<svg width="14" height="14" viewBox="0 0 14 14" fill="none" xmlns="http://www.w3.org/2000/svg">
<path fill-rule="evenodd" clip-rule="evenodd" d="M6.99984 1.16669C10.2215 1.16669 12.8332 3.77836 12.8332 7.00002C12.8332 10.2217 10.2215 12.8334 6.99984 12.8334C3.77818 12.8334 1.1665 10.2217 1.1665 7.00002C1.1665 3.77836 3.77818 1.16669 6.99984 1.16669ZM6.99984 2.33335C4.42251 2.33335 2.33317 4.42269 2.33317 7.00002C2.33317 9.57735 4.42251 11.6667 6.99984 11.6667C9.57717 11.6667 11.6665 9.57735 11.6665 7.00002C11.6665 4.42269 9.57717 2.33335 6.99984 2.33335Z" fill="#FF0000"/>
<path d="M7.58317 9.91667C7.58317 9.5945 7.322 9.33333 6.99984 9.33333C6.67767 9.33333 6.4165 9.5945 6.4165 9.91667C6.4165 10.2388 6.67767 10.5 6.99984 10.5C7.322 10.5 7.58317 10.2388 7.58317 9.91667Z" fill="#FF0000"/>
<path d="M7.58317 4.08333C7.58317 3.76117 7.322 3.5 6.99984 3.5C6.67767 3.5 6.4165 3.76117 6.4165 4.08333V7.58333C6.4165 7.9055 6.67767 8.16667 6.99984 8.16667C7.322 8.16667 7.58317 7.9055 7.58317 7.58333V4.08333Z" fill="#FF0000"/>
</svg>
