<svg width="25" height="24" viewBox="0 0 25 24" fill="none" xmlns="http://www.w3.org/2000/svg">
<path fill-rule="evenodd" clip-rule="evenodd" d="M6.15079 21.7593C5.50212 22.3153 4.5 21.8544 4.5 21V5C4.5 3.34315 5.84315 2 7.5 2H17.5C19.1569 2 20.5 3.34315 20.5 5V21C20.5 21.8544 19.4979 22.3153 18.8492 21.7593L12.5 16.3171L6.15079 21.7593ZM18.5 18.8258V5C18.5 4.44772 18.0523 4 17.5 4H7.5C6.94772 4 6.5 4.44772 6.5 5V18.8258L11.8492 14.2407C12.2237 13.9198 12.7763 13.9198 13.1508 14.2407L18.5 18.8258Z" fill="#1A1D1B"/>
</svg>
