<svg width="20" height="20" fill="none" xmlns="http://www.w3.org/2000/svg"><path fill-rule="evenodd" clip-rule="evenodd" d="M15.834 1.667a2.502 2.502 0 012.495 2.353l.005.147V12.5c0 1.33-1.043 2.42-2.354 2.496l-.146.004h-2.917l-2.25 3a.833.833 0 01-1.27.075L9.334 18l-2.25-3H4.167a2.503 2.503 0 01-2.496-2.353l-.004-.147V4.167c0-1.33 1.043-2.42 2.353-2.496l.147-.004h11.667zm0 1.666H4.167a.835.835 0 00-.828.737l-.005.097V12.5c0 .426.322.78.736.828l.097.005H7.5c.23 0 .448.095.604.259l.063.075L10 16.11l1.834-2.444a.833.833 0 01.569-.328l.097-.006h3.334c.426 0 .78-.322.827-.736l.006-.097V4.167a.835.835 0 00-.736-.828l-.097-.006zm-1.667 5.834a.834.834 0 01.097 1.66l-.097.006H5.834a.834.834 0 01-.097-1.66l.097-.006h8.333zm0-3.334a.834.834 0 01.097 1.661l-.097.006H5.834a.834.834 0 01-.097-1.661l.097-.006h8.333z" fill="#1A1D1B"/></svg>