<svg width="20" height="20" fill="none" xmlns="http://www.w3.org/2000/svg"><path d="M12.23 13.563a.927.927 0 00.228-.616.777.777 0 00-.229-.572l-1.541-1.542h5.979c.236 0 .434-.08.593-.24.16-.16.24-.357.24-.593a.807.807 0 00-.24-.594.806.806 0 00-.593-.24h-5.98l1.542-1.541a.81.81 0 00.25-.593.812.812 0 00-.25-.595.745.745 0 00-.573-.25.777.777 0 00-.573.23l-3 3a.736.736 0 00-.177.27.93.93 0 00-.052.313.93.93 0 00.052.313.736.736 0 00.177.27l3 3a.73.73 0 00.584.23.843.843 0 00.562-.25zM9.166 17.5c.236 0 .434-.08.593-.24.16-.16.24-.357.24-.593a.804.804 0 00-.24-.594.804.804 0 00-.593-.24h-5V4.167h5c.236 0 .434-.08.593-.24.16-.16.24-.358.24-.594a.807.807 0 00-.24-.594.806.806 0 00-.593-.239h-5c-.459 0-.851.163-1.178.49a1.604 1.604 0 00-.489 1.177v11.666c0 .459.163.851.49 1.178.326.326.718.489 1.177.489h5z" fill="red"/></svg>