<svg width="14" height="14" fill="none" xmlns="http://www.w3.org/2000/svg"><path fill-rule="evenodd" clip-rule="evenodd" d="M7 9.333c.762 0 1.41.487 1.65 1.167h3.6a.583.583 0 110 1.167h-3.6a1.75 1.75 0 01-3.3 0h-3.6a.583.583 0 010-1.167h3.6A1.75 1.75 0 017 9.333zM7 10.5a.583.583 0 100 1.167.583.583 0 000-1.167zm4.084-5.25a1.75 1.75 0 11-1.65 2.334H1.75a.583.583 0 110-1.167h7.683a1.75 1.75 0 011.65-1.167zm0 1.167a.583.583 0 100 1.166.583.583 0 000-1.166zm-8.167-5.25A1.75 1.75 0 014.57 2.342a.512.512 0 01.097-.009h7.583a.583.583 0 110 1.167H4.667a.588.588 0 01-.097-.008 1.75 1.75 0 11-1.653-2.325zm0 1.166a.583.583 0 100 1.167.583.583 0 000-1.167z" fill="#1A1D1B"/></svg>