<svg width="20" height="20" fill="none" xmlns="http://www.w3.org/2000/svg"><path fill-rule="evenodd" clip-rule="evenodd" d="M6.667 10A2.501 2.501 0 015 12.358V17.5a.833.833 0 01-1.667 0v-5.142a2.501 2.501 0 010-4.715V2.5A.833.833 0 115 2.5v5.142A2.501 2.501 0 016.667 10zM5 10a.833.833 0 10-1.667 0A.833.833 0 005 10zm7.5 5.833a2.5 2.5 0 11-3.334-2.357V2.5a.833.833 0 011.667 0v10.976a2.501 2.501 0 011.667 2.357zm-1.667 0a.833.833 0 10-1.666 0 .833.833 0 001.666 0zm7.5-11.666a2.501 2.501 0 01-1.679 2.362c.009.044.013.09.013.138V17.5a.833.833 0 01-1.667 0V6.667a.84.84 0 01.011-.139 2.5 2.5 0 113.322-2.361zm-1.666 0a.833.833 0 10-1.667 0 .833.833 0 001.667 0z" fill="#1A1D1B"/></svg>