<svg width="20" height="20" viewBox="0 0 20 20" fill="none" xmlns="http://www.w3.org/2000/svg">
<path fill-rule="evenodd" clip-rule="evenodd" d="M11.1785 10.0003L15.5894 5.58946C15.9152 5.26362 15.9152 4.73696 15.5894 4.41112C15.2635 4.08529 14.7369 4.08529 14.411 4.41112L10.0002 8.82196L5.58938 4.41112C5.26355 4.08529 4.73688 4.08529 4.41105 4.41112C4.08521 4.73696 4.08521 5.26362 4.41105 5.58946L8.82188 10.0003L4.41105 14.4111C4.08521 14.737 4.08521 15.2636 4.41105 15.5895C4.57355 15.752 4.78688 15.8336 5.00021 15.8336C5.21355 15.8336 5.42688 15.752 5.58938 15.5895L10.0002 11.1786L14.411 15.5895C14.5735 15.752 14.7869 15.8336 15.0002 15.8336C15.2135 15.8336 15.4269 15.752 15.5894 15.5895C15.9152 15.2636 15.9152 14.737 15.5894 14.4111L11.1785 10.0003Z" fill="#FF0000"/>
</svg>
