<svg width="20" height="20" viewBox="0 0 20 20" fill="none" xmlns="http://www.w3.org/2000/svg">
<path fill-rule="evenodd" clip-rule="evenodd" d="M6.66667 10.0001C6.66667 11.0886 5.97096 12.0147 4.99993 12.3579L5.00001 17.5001C5.00001 17.9603 4.62691 18.3334 4.16667 18.3334C3.70643 18.3334 3.33334 17.9603 3.33334 17.5001L3.33259 12.3576C2.36199 12.0142 1.66667 11.0883 1.66667 10.0001C1.66667 8.91185 2.36199 7.98601 3.33259 7.6426L3.33334 2.50008C3.33334 2.03984 3.70643 1.66675 4.16667 1.66675C4.62691 1.66675 5.00001 2.03984 5.00001 2.50008L4.99993 7.64231C5.97096 7.98549 6.66667 8.91154 6.66667 10.0001ZM5.00001 10.0001C5.00001 9.53984 4.62691 9.16675 4.16667 9.16675C3.70643 9.16675 3.33334 9.53984 3.33334 10.0001C3.33334 10.4603 3.70643 10.8334 4.16667 10.8334C4.62691 10.8334 5.00001 10.4603 5.00001 10.0001ZM12.5 15.8334C12.5 17.2141 11.3807 18.3334 10 18.3334C8.61929 18.3334 7.5 17.2141 7.5 15.8334C7.5 14.7452 8.19532 13.8193 9.16592 13.4759L9.16667 2.50008C9.16667 2.03984 9.53977 1.66675 10 1.66675C10.4602 1.66675 10.8333 2.03984 10.8333 2.50008L10.8333 13.4756C11.8043 13.8188 12.5 14.7449 12.5 15.8334ZM10.8333 15.8334C10.8333 15.3732 10.4602 15.0001 10 15.0001C9.53977 15.0001 9.16667 15.3732 9.16667 15.8334C9.16667 16.2937 9.53977 16.6667 10 16.6667C10.4602 16.6667 10.8333 16.2937 10.8333 15.8334ZM18.3333 4.16675C18.3333 5.25991 17.6317 6.18921 16.6542 6.52886C16.6628 6.5734 16.6667 6.61962 16.6667 6.66675V17.5001C16.6667 17.9603 16.2936 18.3334 15.8333 18.3334C15.3731 18.3334 15 17.9603 15 17.5001V6.66675C15 6.61962 15.0039 6.5734 15.0114 6.52841C14.035 6.18921 13.3333 5.25991 13.3333 4.16675C13.3333 2.78604 14.4526 1.66675 15.8333 1.66675C17.2141 1.66675 18.3333 2.78604 18.3333 4.16675ZM16.6667 4.16675C16.6667 3.70651 16.2936 3.33341 15.8333 3.33341C15.3731 3.33341 15 3.70651 15 4.16675C15 4.62699 15.3731 5.00008 15.8333 5.00008C16.2936 5.00008 16.6667 4.62699 16.6667 4.16675Z" fill="#1A1D1B"/>
</svg>
