<svg width="29" height="29" fill="none" xmlns="http://www.w3.org/2000/svg"><circle cx="14.5" cy="14.5" r="14.5" fill="#fff"/><path d="M18.822 7.716h-8.644a2.505 2.505 0 00-2.502 2.502v8.643a2.505 2.505 0 002.502 2.502h8.644a2.505 2.505 0 002.502-2.502v-8.643a2.505 2.505 0 00-2.502-2.502zM14.5 19.032a4.498 4.498 0 01-4.493-4.492 4.498 4.498 0 014.493-4.493 4.498 4.498 0 014.493 4.492 4.498 4.498 0 01-4.493 4.493zm4.637-8.056a1.064 1.064 0 01-1.063-1.063 1.064 1.064 0 012.126 0c0 .586-.477 1.063-1.063 1.063z" fill="url(#paint0_linear_11_291)"/><path d="M14.5 11.945a2.598 2.598 0 00-2.595 2.594 2.598 2.598 0 002.595 2.595 2.597 2.597 0 002.594-2.595 2.597 2.597 0 00-2.594-2.594z" fill="url(#paint1_linear_11_291)"/><path d="M14.5 0C6.492 0 0 6.492 0 14.5S6.492 29 14.5 29 29 22.508 29 14.5 22.508 0 14.5 0zm8.722 18.86a4.405 4.405 0 01-4.4 4.401h-8.644a4.405 4.405 0 01-4.4-4.4v-8.644c0-2.426 1.974-4.4 4.4-4.4h8.644c2.426 0 4.4 1.974 4.4 4.4v8.644z" fill="url(#paint2_linear_11_291)"/><defs><linearGradient id="paint0_linear_11_291" x1="8.169" y1="20.473" x2="17.947" y2="15.931" gradientUnits="userSpaceOnUse"><stop stop-color="#FD5"/><stop offset=".5" stop-color="#FF543E"/><stop offset="1" stop-color="#C837AB"/></linearGradient><linearGradient id="paint1_linear_11_291" x1="12.093" y1="16.795" x2="15.81" y2="15.069" gradientUnits="userSpaceOnUse"><stop stop-color="#FD5"/><stop offset=".5" stop-color="#FF543E"/><stop offset="1" stop-color="#C837AB"/></linearGradient><linearGradient id="paint2_linear_11_291" x1="1.046" y1="27.108" x2="21.825" y2="17.457" gradientUnits="userSpaceOnUse"><stop stop-color="#FD5"/><stop offset=".5" stop-color="#FF543E"/><stop offset="1" stop-color="#C837AB"/></linearGradient></defs></svg>