<svg width="16" height="16" fill="none" xmlns="http://www.w3.org/2000/svg"><path d="M8 9.333a.667.667 0 00-.666.667v1.333a.667.667 0 101.333 0V10A.667.667 0 008 9.333zm.254-1.946a.667.667 0 00-.387-.054l-.12.04-.12.06-.1.08A.667.667 0 007.334 8a.667.667 0 00.193.473.645.645 0 00.22.14.667.667 0 00.87-.357.667.667 0 00.05-.256.667.667 0 00-.193-.473.767.767 0 00-.22-.14zm5.08-1.427a.88.88 0 00-.04-.18v-.06a.716.716 0 00-.127-.187l-4-4a.713.713 0 00-.187-.126h-.066a.733.733 0 00-.207-.074h-4.04a2 2 0 00-2 2v9.334a2 2 0 002 2h6.667a2 2 0 002-2V5.96zm-4-2.353l1.726 1.726H10a.667.667 0 01-.666-.666v-1.06zM12 12.667a.667.667 0 01-.666.666H4.667A.667.667 0 014 12.667V3.333a.667.667 0 01.667-.666H8v2a2 2 0 002 2h2v6z" fill="#747474"/></svg>