<svg width="18" height="18" fill="none" xmlns="http://www.w3.org/2000/svg"><path fill-rule="evenodd" clip-rule="evenodd" d="M7.166 7.374A.75.75 0 007.5 6.75v-3A2.25 2.25 0 005.25 1.5h-3a.75.75 0 00-.75.75c0 7.456 6.794 14.25 14.25 14.25a.75.75 0 00.75-.75v-3a2.25 2.25 0 00-2.25-2.25h-3a.75.75 0 00-.624.334l-1.43 2.143a14.166 14.166 0 01-3.968-3.865l-.205-.309 2.143-1.429zM11.651 12h2.599a.75.75 0 01.75.75v2.224a11.9 11.9 0 01-4.193-1.105l-.304-.146L11.651 12zM3.026 3H5.25a.75.75 0 01.75.75v2.599L4.278 7.497C3.577 6.089 3.134 4.565 3.026 3z" fill="#0061B7"/></svg>