<svg width="25" height="24" fill="none" xmlns="http://www.w3.org/2000/svg"><path fill-rule="evenodd" clip-rule="evenodd" d="M22.5 19a3 3 0 01-3 3h-14a3 3 0 01-3-3V5a3 3 0 013-3h4a1 1 0 010 2h-4a1 1 0 00-1 1v13.278l4.186-5.86a1 1 0 011.355-.259l.1.073 5.144 4.286 1.383-2.073a1 1 0 011.446-.234l.093.082 2.293 2.292V15a1 1 0 112 0v4zM9.687 14.458L5.728 20H19.5a1 1 0 00.937-.65l-2.782-2.78-1.323 1.985a1 1 0 01-1.378.283l-.094-.07-5.173-4.31zM17.5 2a1 1 0 011 1v3h3a1 1 0 110 2h-3v3a1 1 0 11-2 0V8h-3a1 1 0 110-2h3V3a1 1 0 011-1zm-9 4a2 2 0 110 4 2 2 0 010-4z" fill="#1A1D1B"/></svg>