<svg width="16" height="16" fill="none" xmlns="http://www.w3.org/2000/svg"><path d="M13.266 8.44a.667.667 0 010-.88l.854-.96a.667.667 0 00.08-.78l-1.334-2.307a.667.667 0 00-.713-.32l-1.253.254a.667.667 0 01-.767-.44l-.407-1.22a.667.667 0 00-.633-.454H6.426a.667.667 0 00-.666.454l-.374 1.22a.667.667 0 01-.766.44l-1.287-.254a.667.667 0 00-.667.32L1.333 5.82a.667.667 0 00.067.78l.846.96a.667.667 0 010 .88L1.4 9.4a.667.667 0 00-.067.78l1.333 2.307a.667.667 0 00.714.32l1.253-.254a.667.667 0 01.767.44l.406 1.22a.667.667 0 00.667.454H9.14a.667.667 0 00.633-.454l.407-1.22a.667.667 0 01.766-.44l1.254.254a.667.667 0 00.713-.32l1.333-2.307a.667.667 0 00-.08-.78l-.9-.96zm-.993.893l.533.6-.853 1.48-.787-.16a2 2 0 00-2.3 1.334l-.253.746H6.906l-.24-.76a2 2 0 00-2.3-1.333l-.786.16-.867-1.473.533-.6a2 2 0 000-2.667l-.533-.6.853-1.467.787.16a2 2 0 002.3-1.333l.253-.753h1.707l.253.76a2 2 0 002.3 1.333l.787-.16.853 1.48-.533.6a2 2 0 000 2.653zm-4.513-4a2.667 2.667 0 100 5.334 2.667 2.667 0 000-5.334zm0 4a1.333 1.333 0 110-2.666 1.333 1.333 0 010 2.666z" fill="#747474"/></svg>