<svg width="16" height="16" fill="none" xmlns="http://www.w3.org/2000/svg"><path d="M11.43 6.5c0 4.189-6.287 4.189-6.287 0h1.572c0 2.099 3.143 2.099 3.143 0m4.715 7.073v2.357H2v-2.357c0-2.098 4.188-3.143 6.286-3.143s6.287 1.045 6.287 3.143zm-1.493 0c0-.503-2.46-1.65-4.794-1.65-2.333 0-4.793 1.147-4.793 1.65v.864h9.587M8.68 1a.39.39 0 01.392.393V3.75h.786V1.786a3.057 3.057 0 011.768 2.946s.55.11.59.983h-7.86c0-.872.59-.982.59-.982a3.057 3.057 0 011.768-2.947V3.75H7.5V1.393A.39.39 0 017.893 1" fill="#747474"/></svg>