<svg width="44" height="12" fill="none" xmlns="http://www.w3.org/2000/svg"><g clip-path="url(#clip0_1024_9115)"><path d="M4.683 11.475a.5.5 0 01-.496-.436l-.176-1.364a2.25 2.25 0 01-.356-.169 4.662 4.662 0 01-.327-.21l-1.332.54a.5.5 0 01-.618-.206L.234 7.717a.5.5 0 01.133-.66l1.13-.827a1.302 1.302 0 01-.015-.19v-.38c0-.06.005-.124.015-.19l-1.13-.827a.5.5 0 01-.133-.66L1.378 2.07a.5.5 0 01.618-.207l1.332.542c.107-.075.218-.146.334-.211.116-.066.233-.122.349-.169L4.187.661a.5.5 0 01.496-.436h2.318a.5.5 0 01.496.436l.176 1.364c.126.047.245.103.357.169.111.065.22.136.326.21l1.332-.541a.5.5 0 01.618.207l1.144 1.913a.5.5 0 01-.133.66l-1.13.827c.01.066.015.13.015.19v.38a.67.67 0 01-.03.19l1.13.827a.5.5 0 01.134.66L10.292 9.63a.5.5 0 01-.619.206l-1.317-.54a3.98 3.98 0 01-.334.211 2.969 2.969 0 01-.349.169l-.176 1.364a.5.5 0 01-.496.436H4.683zm1.188-3.656c.562 0 1.042-.192 1.439-.577.397-.384.596-.848.596-1.392 0-.544-.199-1.008-.596-1.392a1.994 1.994 0 00-1.44-.578c-.571 0-1.054.192-1.446.577a1.875 1.875 0 00-.588 1.392c0 .544.196 1.008.588 1.392.392.385.874.577 1.446.577z" fill="red"/></g><g clip-path="url(#clip1_1024_9115)"><path d="M20.683 11.475a.5.5 0 01-.496-.436l-.176-1.364a2.247 2.247 0 01-.356-.169 4.646 4.646 0 01-.327-.21l-1.332.54a.5.5 0 01-.618-.206l-1.144-1.913a.5.5 0 01.133-.66l1.13-.827a1.3 1.3 0 01-.015-.19v-.38a1.3 1.3 0 01.015-.19l-1.13-.827a.5.5 0 01-.133-.66l1.144-1.913a.5.5 0 01.618-.207l1.332.542c.107-.075.218-.146.334-.211a3.01 3.01 0 01.349-.169l.176-1.364a.5.5 0 01.496-.436h2.318a.5.5 0 01.496.436l.176 1.364c.126.047.245.103.357.169.111.065.22.136.326.21l1.332-.541a.5.5 0 01.618.207l1.144 1.913a.5.5 0 01-.133.66l-1.13.827c.01.066.015.13.015.19v.38a.67.67 0 01-.03.19l1.13.827a.5.5 0 01.134.66L26.292 9.63a.5.5 0 01-.619.206l-1.317-.54a3.96 3.96 0 01-.334.211 2.97 2.97 0 01-.349.169l-.176 1.364a.5.5 0 01-.496.436h-2.318zm1.188-3.656c.562 0 1.042-.192 1.439-.577.397-.384.596-.848.596-1.392 0-.544-.199-1.008-.596-1.392a1.994 1.994 0 00-1.439-.577c-.571 0-1.053.192-1.446.577a1.875 1.875 0 00-.588 1.392c0 .544.196 1.008.588 1.392.392.385.874.577 1.446.577z" fill="#D9D9D9"/></g><g clip-path="url(#clip2_1024_9115)"><path d="M36.683 11.475a.5.5 0 01-.496-.436l-.176-1.364a2.247 2.247 0 01-.356-.169 4.646 4.646 0 01-.327-.21l-1.332.54a.5.5 0 01-.618-.206l-1.144-1.913a.5.5 0 01.133-.66l1.13-.827a1.3 1.3 0 01-.015-.19v-.38a1.3 1.3 0 01.015-.19l-1.13-.827a.5.5 0 01-.133-.66l1.144-1.913a.5.5 0 01.618-.207l1.332.542c.106-.075.218-.146.334-.211a3.01 3.01 0 01.349-.169l.176-1.364a.5.5 0 01.496-.436h2.318a.5.5 0 01.496.436l.176 1.364c.126.047.245.103.357.169.111.065.22.136.326.21l1.332-.541a.5.5 0 01.618.207l1.144 1.913a.5.5 0 01-.133.66l-1.13.827c.01.066.015.13.015.19v.38a.67.67 0 01-.03.19l1.13.827a.5.5 0 01.134.66L42.292 9.63a.5.5 0 01-.619.206l-1.317-.54a3.96 3.96 0 01-.334.211 2.97 2.97 0 01-.349.169l-.176 1.364a.5.5 0 01-.496.436h-2.318zm1.188-3.656c.562 0 1.042-.192 1.439-.577.397-.384.596-.848.596-1.392 0-.544-.199-1.008-.596-1.392a1.994 1.994 0 00-1.439-.577c-.571 0-1.053.192-1.446.577a1.875 1.875 0 00-.588 1.392c0 .544.196 1.008.588 1.392.392.385.874.577 1.446.577z" fill="#D9D9D9"/></g><defs><clipPath id="clip0_1024_9115"><path fill="#fff" d="M0 0h12v12H0z"/></clipPath><clipPath id="clip1_1024_9115"><path fill="#fff" transform="translate(16)" d="M0 0h12v12H0z"/></clipPath><clipPath id="clip2_1024_9115"><path fill="#fff" transform="translate(32)" d="M0 0h12v12H0z"/></clipPath></defs></svg>