<svg width="56" height="16" fill="none" xmlns="http://www.w3.org/2000/svg"><g clip-path="url(#clip0_1028_9417)"><path d="M6.098 15.3a.5.5 0 01-.496-.436L5.348 12.9a2.999 2.999 0 01-.475-.225 6.214 6.214 0 01-.436-.281l-1.908.776a.5.5 0 01-.618-.207L.234 10.16a.5.5 0 01.133-.66l1.629-1.194a1.736 1.736 0 01-.02-.253v-.506c0-.081.007-.166.02-.253L.367 6.1a.5.5 0 01-.133-.66L1.91 2.637a.5.5 0 01.618-.207l1.908.776c.142-.1.29-.194.446-.281.155-.088.31-.163.465-.225L5.602.736A.5.5 0 016.098.3H9.48a.5.5 0 01.496.436L10.23 2.7a3 3 0 01.475.225c.149.087.294.181.436.281l1.908-.776a.5.5 0 01.618.207l1.677 2.803a.5.5 0 01-.133.66l-1.629 1.194c.013.087.02.172.02.253v.506a.895.895 0 01-.04.253l1.63 1.194a.5.5 0 01.133.66l-1.677 2.802a.5.5 0 01-.619.206l-1.888-.774a5.17 5.17 0 01-.446.281 4.12 4.12 0 01-.465.225l-.254 1.964a.5.5 0 01-.496.436H6.098zm1.73-4.875c.75 0 1.389-.256 1.919-.769.53-.512.794-1.131.794-1.856a2.49 2.49 0 00-.794-1.856 2.658 2.658 0 00-1.919-.769c-.762 0-1.405.256-1.928.769A2.5 2.5 0 005.115 7.8c0 .725.262 1.344.785 1.856.523.513 1.166.769 1.928.769z" fill="#06C960"/></g><g clip-path="url(#clip1_1028_9417)"><path d="M26.098 15.3a.5.5 0 01-.496-.436l-.254-1.964a3 3 0 01-.475-.225 6.224 6.224 0 01-.436-.281l-1.908.776a.5.5 0 01-.618-.207l-1.677-2.803a.5.5 0 01.133-.66l1.629-1.194a1.739 1.739 0 01-.02-.253v-.506c0-.081.007-.166.02-.253L20.367 6.1a.5.5 0 01-.133-.66l1.677-2.803a.5.5 0 01.618-.207l1.908.776c.142-.1.29-.194.446-.281.155-.088.31-.163.465-.225l.254-1.964A.5.5 0 0126.098.3h3.383a.5.5 0 01.496.436l.254 1.964a3 3 0 01.475.225c.149.087.294.181.436.281l1.908-.776a.5.5 0 01.618.207l1.677 2.803a.5.5 0 01-.133.66l-1.629 1.194c.013.087.02.172.02.253v.506a.895.895 0 01-.04.253l1.63 1.194a.5.5 0 01.133.66l-1.677 2.802a.5.5 0 01-.619.206l-1.888-.774a5.17 5.17 0 01-.446.281 4.12 4.12 0 01-.465.225l-.254 1.964a.5.5 0 01-.496.436h-3.383zm1.73-4.875c.75 0 1.389-.256 1.919-.769.53-.512.794-1.131.794-1.856a2.49 2.49 0 00-.794-1.856 2.658 2.658 0 00-1.919-.769c-.762 0-1.405.256-1.928.769a2.5 2.5 0 00-.784 1.856c0 .725.26 1.344.784 1.856.523.513 1.166.769 1.928.769z" fill="#06C960"/></g><g clip-path="url(#clip2_1028_9417)"><path d="M46.098 15.3a.5.5 0 01-.496-.436l-.254-1.964a3 3 0 01-.475-.225 6.224 6.224 0 01-.436-.281l-1.908.776a.5.5 0 01-.618-.207l-1.677-2.803a.5.5 0 01.133-.66l1.629-1.194a1.739 1.739 0 01-.02-.253v-.506c0-.081.007-.166.02-.253L40.367 6.1a.5.5 0 01-.133-.66l1.677-2.803a.5.5 0 01.618-.207l1.908.776c.142-.1.29-.194.446-.281.155-.088.31-.163.465-.225l.254-1.964A.5.5 0 0146.098.3h3.383a.5.5 0 01.496.436l.254 1.964a3 3 0 01.475.225c.149.087.294.181.436.281l1.908-.776a.5.5 0 01.618.207l1.677 2.803a.5.5 0 01-.133.66l-1.629 1.194c.013.087.02.172.02.253v.506a.895.895 0 01-.04.253l1.63 1.194a.5.5 0 01.133.66l-1.677 2.802a.5.5 0 01-.619.206l-1.888-.774a5.17 5.17 0 01-.446.281 4.12 4.12 0 01-.465.225l-.254 1.964a.5.5 0 01-.496.436h-3.383zm1.73-4.875c.75 0 1.389-.256 1.918-.769.53-.512.795-1.131.795-1.856a2.49 2.49 0 00-.794-1.856 2.658 2.658 0 00-1.919-.769c-.762 0-1.405.256-1.928.769a2.5 2.5 0 00-.785 1.856c0 .725.262 1.344.785 1.856.523.513 1.166.769 1.928.769z" fill="#06C960"/></g><defs><clipPath id="clip0_1028_9417"><path fill="#fff" d="M0 0h16v16H0z"/></clipPath><clipPath id="clip1_1028_9417"><path fill="#fff" transform="translate(20)" d="M0 0h16v16H0z"/></clipPath><clipPath id="clip2_1028_9417"><path fill="#fff" transform="translate(40)" d="M0 0h16v16H0z"/></clipPath></defs></svg>