<svg width="20" height="20" fill="none" xmlns="http://www.w3.org/2000/svg"><path fill-rule="evenodd" clip-rule="evenodd" d="M4.168 1.667a2.5 2.5 0 00-2.5 2.5v5a2.5 2.5 0 002.5 2.5h1.15l2.644 5.284a2.5 2.5 0 002.07 1.377l.166.005h.22c1.104 0 2.008-.86 2.079-1.946l.004-.137v-4.583h3.332a2.499 2.499 0 002.476-2.846l-.024-.145-1-5a2.5 2.5 0 00-2.304-2.005l-.148-.004H4.168zM5 10h-.833a.833.833 0 01-.834-.833v-5c0-.46.374-.834.834-.834H5V10zm5.417 6.667h-.22a.835.835 0 01-.693-.37l-.053-.091-2.696-5.393a.833.833 0 01-.083-.277l-.005-.096V3.333h8.165c.364 0 .682.236.792.575l.025.095 1 5a.833.833 0 01-.654.98l-.08.013-.083.004H12.5c-.878 0-1.598.68-1.662 1.542l-.005.125v4.583a.417.417 0 01-.341.41l-.075.007z" fill="#D9D9D9"/></svg>