<svg width="29" height="29" fill="none" xmlns="http://www.w3.org/2000/svg"><path d="M14.5 29C22.508 29 29 22.508 29 14.5S22.508 0 14.5 0 0 6.492 0 14.5 6.492 29 14.5 29z" fill="#4680C2"/><path fill-rule="evenodd" clip-rule="evenodd" d="M13.952 20.86h1.138s.344-.038.52-.228c.161-.173.156-.5.156-.5s-.022-1.527.687-1.752c.698-.221 1.595 1.476 2.546 2.13.72.493 1.266.385 1.266.385l2.542-.036s1.33-.082.7-1.127c-.052-.086-.367-.774-1.89-2.188-1.595-1.48-1.381-1.24.54-3.8 1.169-1.559 1.636-2.51 1.49-2.918-.14-.389-1-.286-1-.286l-2.862.018s-.212-.029-.37.065c-.154.092-.253.308-.253.308s-.453 1.206-1.057 2.232c-1.275 2.164-1.785 2.279-1.993 2.144-.484-.313-.363-1.258-.363-1.93 0-2.098.318-2.972-.62-3.199-.311-.075-.54-.125-1.336-.133-1.022-.01-1.886.004-2.376.243-.325.16-.577.515-.424.536.19.025.618.115.845.425.294.399.283 1.295.283 1.295s.169 2.47-.393 2.776c-.386.21-.916-.219-2.052-2.183a18.259 18.259 0 01-1.022-2.118s-.085-.207-.236-.319a1.186 1.186 0 00-.44-.177l-2.72.018s-.409.011-.559.189c-.133.158-.01.484-.01.484s2.13 4.983 4.541 7.494c2.211 2.303 4.722 2.151 4.722 2.151z" fill="#fff"/></svg>