<svg width="20" height="20" viewBox="0 0 20 20" fill="none" xmlns="http://www.w3.org/2000/svg">
<path fill-rule="evenodd" clip-rule="evenodd" d="M10.9821 1.89902C11.4072 2.11155 11.7518 2.45621 11.9644 2.88127L18.1011 15.1547C18.6435 16.2396 18.2038 17.559 17.1188 18.1014C16.8138 18.2539 16.4775 18.3333 16.1365 18.3333H3.86314C2.65011 18.3333 1.66675 17.35 1.66675 16.1369C1.66675 15.796 1.74614 15.4597 1.89863 15.1547L8.03533 2.88127C8.57781 1.7963 9.89713 1.35653 10.9821 1.89902ZM9.36445 3.72627L3.40843 15.6383C3.3591 15.737 3.33341 15.8458 3.33341 15.9561C3.33341 16.3485 3.65155 16.6667 4.04399 16.6667H15.956C16.0663 16.6667 16.1751 16.641 16.2738 16.5916C16.6248 16.4161 16.7671 15.9893 16.5916 15.6383L10.6356 3.72627C10.5668 3.58876 10.4553 3.47725 10.3178 3.4085C9.96677 3.23299 9.53995 3.37527 9.36445 3.72627ZM10.0001 13.3333C10.4603 13.3333 10.8334 13.7064 10.8334 14.1667C10.8334 14.6269 10.4603 15 10.0001 15C9.53984 15 9.16675 14.6269 9.16675 14.1667C9.16675 13.7064 9.53984 13.3333 10.0001 13.3333ZM10.0001 6.66666C10.4603 6.66666 10.8334 7.03975 10.8334 7.49999V10.8333C10.8334 11.2936 10.4603 11.6667 10.0001 11.6667C9.53984 11.6667 9.16675 11.2936 9.16675 10.8333V7.49999C9.16675 7.03975 9.53984 6.66666 10.0001 6.66666Z" fill="#D9D9D9"/>
</svg>
