<svg width="20" height="20" viewBox="0 0 20 20" fill="none" xmlns="http://www.w3.org/2000/svg">
<path fill-rule="evenodd" clip-rule="evenodd" d="M5.83329 13.3333H14.1666C16.4678 13.3333 18.3333 15.1988 18.3333 17.5C18.3333 17.9602 17.9602 18.3333 17.5 18.3333C17.0726 18.3333 16.7204 18.0116 16.6722 17.5972L16.6624 17.3531C16.5892 16.0894 15.5773 15.0775 14.3135 15.0042L14.1666 15H5.83329C4.45258 15 3.33329 16.1193 3.33329 17.5C3.33329 17.9602 2.9602 18.3333 2.49996 18.3333C2.03972 18.3333 1.66663 17.9602 1.66663 17.5C1.66663 15.2594 3.43521 13.4318 5.65255 13.3372L5.83329 13.3333H14.1666H5.83329ZM9.99996 1.66666C12.7614 1.66666 15 3.90524 15 6.66666C15 9.42809 12.7614 11.6667 9.99996 11.6667C7.23854 11.6667 4.99996 9.42809 4.99996 6.66666C4.99996 3.90524 7.23854 1.66666 9.99996 1.66666ZM9.99996 3.33333C8.15901 3.33333 6.66663 4.82571 6.66663 6.66666C6.66663 8.50761 8.15901 10 9.99996 10C11.8409 10 13.3333 8.50761 13.3333 6.66666C13.3333 4.82571 11.8409 3.33333 9.99996 3.33333Z" fill="#1A1D1B"/>
</svg>
