<svg width="230" height="30" viewBox="0 0 230 30" fill="none" xmlns="http://www.w3.org/2000/svg">
<path d="M41 26.088V3.416H45.3874L49.2724 14.5093C49.518 15.2258 49.7525 15.9653 49.9757 16.728C50.2213 17.4676 50.4558 18.2071 50.6791 18.9467H50.813C51.0586 18.2071 51.2931 17.4676 51.5163 16.728C51.7396 15.9653 51.9629 15.2258 52.1862 14.5093L55.9707 3.416H60.3916V26.088H56.808V15.7227C56.808 15.0062 56.8303 14.232 56.875 13.4C56.942 12.5449 57.0089 11.6898 57.0759 10.8347C57.1652 9.97955 57.2434 9.20533 57.3104 8.512H57.1764L55.4014 13.7813L51.8178 23.9733H49.5068L45.8898 13.7813L44.1482 8.512H44.0142C44.0812 9.20533 44.1482 9.97955 44.2152 10.8347C44.3045 11.6898 44.3715 12.5449 44.4161 13.4C44.4831 14.232 44.5166 15.0062 44.5166 15.7227V26.088H41Z" fill="#1A1D1B"/>
<path d="M70.443 14.024L69.6727 16.7973H75.2658L74.4955 14.024C74.1382 12.8222 73.7921 11.5858 73.4572 10.3147C73.1446 9.04355 72.832 7.784 72.5195 6.536H72.3855C72.0952 7.80711 71.7826 9.07822 71.4477 10.3493C71.1351 11.5973 70.8002 12.8222 70.443 14.024ZM63.1083 26.088L70.242 3.416H74.7969L81.9306 26.088H77.8446L76.1365 19.952H68.7684L67.0603 26.088H63.1083Z" fill="#1A1D1B"/>
<path d="M93.0448 26.504C91.2139 26.504 89.5505 26.0533 88.0545 25.152C86.5586 24.2507 85.3641 22.9333 84.471 21.2C83.6002 19.4436 83.1648 17.3173 83.1648 14.8213C83.1648 12.3484 83.6113 10.2338 84.5044 8.47733C85.4199 6.69778 86.6367 5.34578 88.155 4.42133C89.6733 3.47378 91.3479 3 93.1788 3C94.5631 3 95.7911 3.28889 96.8628 3.86667C97.9345 4.44444 98.8165 5.11467 99.5087 5.87733L97.4322 8.47733C96.874 7.87644 96.2488 7.40267 95.5567 7.056C94.8868 6.68622 94.1277 6.50133 93.2792 6.50133C92.0959 6.50133 91.0353 6.83644 90.0975 7.50667C89.1821 8.15378 88.4564 9.08978 87.9206 10.3147C87.407 11.5396 87.1503 13.0071 87.1503 14.7173C87.1503 17.3058 87.6973 19.3396 88.7914 20.8187C89.8854 22.2747 91.3479 23.0027 93.1788 23.0027C94.1612 23.0027 95.0319 22.7947 95.7911 22.3787C96.5502 21.9396 97.2424 21.3733 97.8676 20.68L99.944 23.2107C99.0509 24.2738 98.0239 25.0942 96.8628 25.672C95.7241 26.2267 94.4514 26.504 93.0448 26.504Z" fill="#1A1D1B"/>
<path d="M103.6 26.088V3.416H107.485V12.5333H116.361V3.416H120.246V26.088H116.361V16.0347H107.485V26.088H103.6Z" fill="#1A1D1B"/>
<path d="M125.808 26.088V3.416H129.693V26.088H125.808Z" fill="#1A1D1B"/>
<path d="M135.26 26.088V3.416H139.246L146.078 16.1733L148.322 20.992H148.456C148.367 19.8364 148.255 18.5769 148.121 17.2133C148.009 15.8498 147.954 14.5324 147.954 13.2613V3.416H151.671V26.088H147.686L140.853 13.3307L138.609 8.512H138.476C138.565 9.71378 138.665 10.9733 138.777 12.2907C138.911 13.608 138.978 14.9022 138.978 16.1733V26.088H135.26Z" fill="#1A1D1B"/>
<path d="M157.239 26.088V3.416H170.435V6.81333H161.124V12.6027H168.995V16H161.124V22.6907H170.77V26.088H157.239Z" fill="#1A1D1B"/>
<path d="M175.26 26.088V3.416H182.662C184.18 3.416 185.542 3.624 186.748 4.04C187.976 4.456 188.936 5.16089 189.628 6.15467C190.343 7.12533 190.7 8.45422 190.7 10.1413C190.7 11.8747 190.298 13.2729 189.494 14.336C188.713 15.3991 187.663 16.1618 186.346 16.624L191.571 26.088H187.217L182.495 17.2133H179.145V26.088H175.26ZM179.145 14.024H182.26C183.756 14.024 184.895 13.7004 185.676 13.0533C186.48 12.3831 186.882 11.4124 186.882 10.1413C186.882 8.84711 186.48 7.94578 185.676 7.43733C184.895 6.90578 183.756 6.64 182.26 6.64H179.145V14.024Z" fill="#1A1D1B"/>
<path d="M195.081 26.088V3.416H208.276V6.81333H198.966V12.6027H206.836V16H198.966V22.6907H208.611V26.088H195.081Z" fill="#1A1D1B"/>
<path d="M217.59 14.024L216.82 16.7973H222.413L221.642 14.024C221.285 12.8222 220.939 11.5858 220.604 10.3147C220.291 9.04355 219.979 7.784 219.666 6.536H219.532C219.242 7.80711 218.929 9.07822 218.595 10.3493C218.282 11.5973 217.947 12.8222 217.59 14.024ZM210.255 26.088L217.389 3.416H221.944L229.077 26.088H224.991L223.283 19.952H215.915L214.207 26.088H210.255Z" fill="#1A1D1B"/>
<g clip-path="url(#clip0_1217_1680)">
<path d="M11.3372 30C11.0849 30 10.8721 29.8121 10.841 29.5617L10.2985 25.2C9.97513 25.075 9.67015 24.925 9.38358 24.75C9.09702 24.575 8.81741 24.3875 8.54478 24.1875L4.51162 25.8906C4.2791 25.9888 4.00986 25.8983 3.88387 25.6795L0.219539 19.3186C0.0940067 19.1007 0.149862 18.8234 0.349981 18.6711L3.84328 16.0125C3.81841 15.8375 3.80597 15.6685 3.80597 15.5055V14.4945C3.80597 14.3315 3.81841 14.1625 3.84328 13.9875L0.349982 11.3289C0.149862 11.1766 0.0940066 10.8993 0.219539 10.6814L3.88387 4.32046C4.00986 4.10175 4.2791 4.01124 4.51162 4.10943L8.54478 5.8125C8.81841 5.6125 9.10448 5.425 9.40299 5.25C9.70149 5.075 10 4.925 10.2985 4.8L10.841 0.438286C10.8721 0.187937 11.0849 0 11.3372 0H18.6628C18.9151 0 19.1279 0.187937 19.159 0.438287L19.7015 4.8C20.0249 4.925 20.3299 5.075 20.6164 5.25C20.903 5.425 21.1826 5.6125 21.4552 5.8125L25.4884 4.10943C25.7209 4.01124 25.9901 4.10175 26.1161 4.32046L29.7805 10.6814C29.906 10.8993 29.8501 11.1766 29.65 11.3289L26.1567 13.9875C26.1816 14.1625 26.194 14.3315 26.194 14.4945V15.5055C26.194 15.6685 26.1692 15.8375 26.1194 16.0125L29.6127 18.6711C29.8128 18.8234 29.8687 19.1007 29.7431 19.3186L26.0795 25.6784C25.9532 25.8976 25.6831 25.9879 25.4503 25.8888L21.4552 24.1875C21.1816 24.3875 20.8955 24.575 20.597 24.75C20.2985 24.925 20 25.075 19.7015 25.2L19.159 29.5617C19.1279 29.8121 18.9151 30 18.6628 30H11.3372ZM15.0746 20.25C16.5174 20.25 17.7488 19.7375 18.7687 18.7125C19.7886 17.6875 20.2985 16.45 20.2985 15C20.2985 13.55 19.7886 12.3125 18.7687 11.2875C17.7488 10.2625 16.5174 9.75 15.0746 9.75C13.607 9.75 12.3692 10.2625 11.3612 11.2875C10.3532 12.3125 9.84975 13.55 9.85075 15C9.85075 16.45 10.3542 17.6875 11.3612 18.7125C12.3682 19.7375 13.606 20.25 15.0746 20.25Z" fill="#22B8AF"/>
</g>
<defs>
<clipPath id="clip0_1217_1680">
<rect width="30" height="30" fill="white"/>
</clipPath>
</defs>
</svg>
