<svg width="200" height="28" viewBox="0 0 200 28" fill="none" xmlns="http://www.w3.org/2000/svg">
<path d="M35.7852 23.702V3.864H39.6145L43.0054 13.5707C43.2197 14.1976 43.4244 14.8447 43.6192 15.512C43.8336 16.1591 44.0382 16.8062 44.2331 17.4533H44.35C44.5644 16.8062 44.769 16.1591 44.9639 15.512C45.1588 14.8447 45.3536 14.1976 45.5485 13.5707L48.8517 3.864H52.7103V23.702H49.5825V14.6323C49.5825 14.0054 49.602 13.328 49.641 12.6C49.6994 11.8518 49.7579 11.1036 49.8163 10.3553C49.8943 9.60711 49.9625 8.92967 50.021 8.323H49.904L48.3548 12.9337L45.227 21.8517H43.21L40.053 12.9337L38.5329 8.323H38.416C38.4745 8.92967 38.5329 9.60711 38.5914 10.3553C38.6693 11.1036 38.7278 11.8518 38.7668 12.6C38.8252 13.328 38.8545 14.0054 38.8545 14.6323V23.702H35.7852Z" fill="#1A1D1B"/>
<path d="M61.4832 13.146L60.8109 15.5727H65.6925L65.0202 13.146C64.7084 12.0944 64.4064 11.0126 64.114 9.90033C63.8412 8.78811 63.5684 7.686 63.2956 6.594H63.1786C62.9253 7.70622 62.6525 8.81844 62.3601 9.93067C62.0873 11.0227 61.795 12.0944 61.4832 13.146ZM55.0815 23.702L61.3078 3.864H65.2833L71.5096 23.702H67.9434L66.4526 18.333H60.0216L58.5308 23.702H55.0815Z" fill="#1A1D1B"/>
<path d="M81.2102 24.066C79.6122 24.066 78.1604 23.6717 76.8547 22.883C75.549 22.0943 74.5064 20.9417 73.7269 19.425C72.9669 17.8881 72.5869 16.0277 72.5869 13.8437C72.5869 11.6799 72.9766 9.82956 73.7561 8.29267C74.5551 6.73555 75.6172 5.55256 76.9424 4.74367C78.2676 3.91456 79.7291 3.5 81.3271 3.5C82.5354 3.5 83.6072 3.75278 84.5426 4.25833C85.478 4.76389 86.2478 5.35033 86.8519 6.01767L85.0396 8.29267C84.5524 7.76689 84.0067 7.35233 83.4026 7.049C82.818 6.72544 82.1554 6.56367 81.4148 6.56367C80.382 6.56367 79.4563 6.85689 78.6378 7.44333C77.8388 8.00956 77.2055 8.82856 76.7378 9.90033C76.2895 10.9721 76.0654 12.2562 76.0654 13.7527C76.0654 16.0176 76.5429 17.7971 77.4978 19.0913C78.4527 20.3653 79.7291 21.0023 81.3271 21.0023C82.1846 21.0023 82.9446 20.8203 83.6072 20.4563C84.2698 20.0721 84.8739 19.5767 85.4196 18.97L87.2319 21.1843C86.4524 22.1146 85.556 22.8324 84.5426 23.338C83.5487 23.8233 82.4379 24.066 81.2102 24.066Z" fill="#1A1D1B"/>
<path d="M90.4232 23.702V3.864H93.8141V11.8417H101.56V3.864H104.951V23.702H101.56V14.9053H93.8141V23.702H90.4232Z" fill="#1A1D1B"/>
<path d="M109.806 23.702V3.864H113.197V23.702H109.806Z" fill="#1A1D1B"/>
<path d="M118.056 23.702V3.864H121.535L127.498 15.0267L129.457 19.243H129.574C129.496 18.2319 129.398 17.1298 129.281 15.9367C129.184 14.7436 129.135 13.5909 129.135 12.4787V3.864H132.38V23.702H128.901L122.938 12.5393L120.979 8.323H120.862C120.94 9.37456 121.028 10.4767 121.126 11.6293C121.242 12.782 121.301 13.9144 121.301 15.0267V23.702H118.056Z" fill="#1A1D1B"/>
<path d="M137.239 23.702V3.864H148.757V6.83667H140.63V11.9023H147.5V14.875H140.63V20.7293H149.049V23.702H137.239Z" fill="#1A1D1B"/>
<path d="M152.969 23.702V3.864H159.429C160.754 3.864 161.943 4.046 162.995 4.41C164.067 4.774 164.905 5.39078 165.509 6.26033C166.133 7.10967 166.444 8.27244 166.444 9.74867C166.444 11.2653 166.094 12.4888 165.392 13.419C164.71 14.3492 163.794 15.0166 162.644 15.421L167.204 23.702H163.404L159.283 15.9367H156.36V23.702H152.969ZM156.36 13.146H159.078C160.384 13.146 161.378 12.8629 162.06 12.2967C162.761 11.7102 163.112 10.8609 163.112 9.74867C163.112 8.61622 162.761 7.82755 162.06 7.38267C161.378 6.91755 160.384 6.685 159.078 6.685H156.36V13.146Z" fill="#1A1D1B"/>
<path d="M170.268 23.702V3.864H181.785V6.83667H173.659V11.9023H180.528V14.875H173.659V20.7293H182.077V23.702H170.268Z" fill="#1A1D1B"/>
<path d="M189.914 13.146L189.242 15.5727H194.123L193.451 13.146C193.139 12.0944 192.837 11.0126 192.545 9.90033C192.272 8.78811 191.999 7.686 191.726 6.594H191.609C191.356 7.70622 191.083 8.81844 190.791 9.93067C190.518 11.0227 190.226 12.0944 189.914 13.146ZM183.512 23.702L189.739 3.864H193.714L199.94 23.702H196.374L194.883 18.333H188.452L186.962 23.702H183.512Z" fill="#1A1D1B"/>
<g clip-path="url(#clip0_1100_2383)">
<path d="M9.89518 27.0592C9.67499 27.0592 9.48929 26.8952 9.46211 26.6767L8.98861 22.8697C8.70636 22.7606 8.44018 22.6297 8.19006 22.477C7.93994 22.3242 7.6959 22.1606 7.45794 21.986L3.93778 23.4725C3.73483 23.5582 3.49983 23.4792 3.38987 23.2883L0.191615 17.7364C0.0820495 17.5462 0.130801 17.3042 0.305466 17.1713L3.35444 14.8508C3.33273 14.6981 3.32188 14.5506 3.32188 14.4083V13.5259C3.32188 13.3836 3.33273 13.2361 3.35444 13.0834L0.305466 10.7629C0.130801 10.63 0.0820496 10.388 0.191615 10.1978L3.38987 4.64593C3.49983 4.45504 3.73483 4.37604 3.93778 4.46174L7.45794 5.94819C7.69677 5.77363 7.94645 5.60998 8.20699 5.45724C8.46753 5.3045 8.72807 5.17357 8.98861 5.06447L9.46211 1.25754C9.48929 1.03903 9.67499 0.875 9.89518 0.875H16.289C16.5092 0.875 16.6949 1.03903 16.7221 1.25754L17.1956 5.06447C17.4779 5.17357 17.744 5.3045 17.9942 5.45724C18.2443 5.60998 18.4883 5.77363 18.7263 5.94819L22.2464 4.46174C22.4494 4.37604 22.6844 4.45504 22.7943 4.64593L25.9926 10.1978C26.1022 10.388 26.0534 10.63 25.8787 10.7629L22.8298 13.0834C22.8515 13.2361 22.8623 13.3836 22.8623 13.5259V14.4083C22.8623 14.5506 22.8406 14.6981 22.7972 14.8508L25.8462 17.1713C26.0208 17.3042 26.0696 17.5462 25.96 17.7364L22.7624 23.2873C22.6521 23.4786 22.4164 23.5574 22.2132 23.4709L18.7263 21.986C18.4874 22.1606 18.2378 22.3242 17.9772 22.477C17.7167 22.6297 17.4561 22.7606 17.1956 22.8697L16.7221 26.6767C16.6949 26.8952 16.5092 27.0592 16.289 27.0592H9.89518ZM13.1572 18.5493C14.4165 18.5493 15.4912 18.102 16.3814 17.2074C17.2716 16.3128 17.7167 15.2327 17.7167 13.9671C17.7167 12.7015 17.2716 11.6214 16.3814 10.7268C15.4912 9.83218 14.4165 9.38487 13.1572 9.38487C11.8763 9.38487 10.7959 9.83218 9.91613 10.7268C9.03638 11.6214 8.59693 12.7015 8.5978 13.9671C8.5978 15.2327 9.03724 16.3128 9.91613 17.2074C10.795 18.102 11.8754 18.5493 13.1572 18.5493Z" fill="#22B8AF"/>
</g>
<defs>
<clipPath id="clip0_1100_2383">
<rect width="26.1842" height="26.25" fill="white" transform="translate(0 0.875)"/>
</clipPath>
</defs>
</svg>
