<svg width="20" height="20" fill="none" xmlns="http://www.w3.org/2000/svg"><path fill-rule="evenodd" clip-rule="evenodd" d="M15.833 1.667a2.5 2.5 0 012.5 2.5v11.666a2.5 2.5 0 01-2.5 2.5H4.167a2.5 2.5 0 01-2.5-2.5V4.167a2.5 2.5 0 012.5-2.5h11.666zm0 1.666H4.167a.833.833 0 00-.834.834v11.666c0 .46.374.834.834.834h11.666c.46 0 .834-.373.834-.834V4.167a.833.833 0 00-.834-.834zm-9.166 8.334c.46 0 .833.373.833.833v1.667a.833.833 0 01-1.667 0V12.5c0-.46.374-.833.834-.833zM10 5c.46 0 .833.373.833.833v8.334a.833.833 0 01-1.666 0V5.833c0-.46.373-.833.833-.833zm3.333 3.333c.46 0 .834.373.834.834v5a.833.833 0 11-1.667 0v-5c0-.46.373-.834.833-.834z" fill="#0061B7"/></svg>