<svg width="20" height="20" fill="none" xmlns="http://www.w3.org/2000/svg"><path fill-rule="evenodd" clip-rule="evenodd" d="M5.833 15.488l1.078-1.077c.3-.3.773-.324 1.1-.07l.078.07c.3.3.324.773.07 1.1l-.07.078-2.5 2.5-.036.035-.057.046-.093.06-.05.025-.068.028-.063.02-.124.025-.098.005-.068-.003-.1-.014-.092-.024-.093-.037-.08-.043-.063-.042-.093-.08-2.5-2.5a.833.833 0 011.1-1.249l.078.07 1.078 1.077V4.511L3.089 5.59l-.078.07a.833.833 0 01-1.17-1.17l.07-.078 2.5-2.5.093-.08.062-.043.081-.043.093-.037.093-.025.099-.013L5 1.667l.098.005.124.024.063.02.068.029.05.026.093.06.057.045.036.035 2.5 2.5.07.078c.233.3.233.722 0 1.022l-.07.078-.078.07a.834.834 0 01-1.022 0l-.078-.07-1.078-1.077v10.976zm11.667.345a.833.833 0 010 1.667h-6.667a.833.833 0 010-1.667H17.5zm0-6.666a.833.833 0 010 1.666h-6.667a.833.833 0 010-1.666H17.5zm0-6.667a.833.833 0 010 1.667h-6.667a.833.833 0 010-1.667H17.5z" fill="#1A1D1B"/></svg>