<svg width="20" height="20" fill="none" xmlns="http://www.w3.org/2000/svg"><path fill-rule="evenodd" clip-rule="evenodd" d="M10 1.25c4.142 0 6.666 3.321 6.666 7.419 0 2.71-1.435 6.41-5.876 9.534l-.79.547-.477-.33c-4.648-3.207-6.19-6.977-6.19-9.751C3.333 4.57 5.858 1.25 10 1.25zm0 1.649c-3.222 0-5 2.583-5 5.77 0 2.002 1.08 5.278 5 8.066 3.92-2.788 5-6.064 5-8.066 0-3.187-1.779-5.77-5-5.77zm0 1.684a3.333 3.333 0 110 6.667 3.333 3.333 0 010-6.667zm0 1.667a1.667 1.667 0 100 3.333 1.667 1.667 0 000-3.333z" fill="#747474"/></svg>