<svg width="25" height="24" fill="none" xmlns="http://www.w3.org/2000/svg"><path fill-rule="evenodd" clip-rule="evenodd" d="M9 19a1.5 1.5 0 110 3 1.5 1.5 0 010-3zm9 0a1.5 1.5 0 110 3 1.5 1.5 0 010-3zM3.5 2h2a1 1 0 01.965.738l.023.11L6.973 6H21.5a1 1 0 01.995 1.1l-.019.117-1.652 7.434a3 3 0 01-2.746 2.343l-.182.006h-8.68a3 3 0 01-2.933-2.37l-.032-.174L4.642 4H3.5a1 1 0 01-.117-1.993L3.5 2h2-2zm16.753 6H7.281l.946 6.152a1 1 0 00.876.842l.113.006h8.68a1 1 0 00.944-.671l.032-.112L20.253 8z" fill="#1A1D1B"/></svg>