<svg width="20" height="20" fill="none" xmlns="http://www.w3.org/2000/svg"><path fill-rule="evenodd" clip-rule="evenodd" d="M15.51 3.508l.079.07 2.5 2.5a.854.854 0 01.064.07l.069.102.031.06.03.073.027.089.018.097.005.07-.001.077-.012.096-.028.115-.037.092-.044.082-.055.08-.067.075-2.5 2.5a.833.833 0 01-1.248-1.1l.07-.079L15.487 7.5H7.5a.833.833 0 01-.828-.736l-.006-.097c0-.46.374-.834.834-.834h7.987l-1.076-1.077a.834.834 0 01-.07-1.1l.07-.079a.834.834 0 011.015-.127l.085.058zM4.41 16.423l-2.5-2.5-.08-.094-.06-.092-.044-.094-.03-.088-.017-.076-.011-.096v-.099l.011-.096.029-.115.016-.045.033-.073.031-.056.046-.067.044-.053.032-.035 2.5-2.5.079-.07a.834.834 0 011.021 0l.079.07.07.079c.232.3.232.721 0 1.021l-.07.079L4.512 12.5H12.5c.427 0 .78.322.827.736l.006.097-.006.098a.834.834 0 01-.73.73l-.097.006H4.512l1.077 1.077.07.079a.834.834 0 01-1.17 1.169l-.079-.07z" fill="#0061B7"/></svg>