<svg width="29" height="29" fill="none" xmlns="http://www.w3.org/2000/svg"><circle cx="14.5" cy="14.5" r="14.5" fill="#25A5E4"/><g clip-path="url(#clip0_5_3966)"><path d="M12.886 16.488l-.248 3.49c.354 0 .508-.152.693-.335l1.664-1.59 3.449 2.525c.632.352 1.078.167 1.248-.582l2.264-10.608c.201-.935-.337-1.3-.953-1.072L7.696 13.412c-.908.352-.894.859-.154 1.088l3.402 1.058 7.902-4.944c.372-.246.71-.11.431.136l-6.391 5.74z" fill="#fff"/></g><defs><clipPath id="clip0_5_3966"><path fill="#fff" transform="translate(7 7)" d="M0 0h15v15H0z"/></clipPath></defs></svg>