<svg width="20" height="20" fill="none" xmlns="http://www.w3.org/2000/svg"><path fill-rule="evenodd" clip-rule="evenodd" d="M4.167 18.333a2.5 2.5 0 01-2.5-2.5v-5a2.5 2.5 0 012.5-2.5h1.15L7.96 3.05a2.5 2.5 0 012.07-1.377l.167-.005h.22c1.104 0 2.008.86 2.078 1.946l.005.137v4.583h3.332a2.5 2.5 0 012.476 2.846l-.025.145-1 5a2.5 2.5 0 01-2.303 2.005l-.148.004H4.167zM5 10h-.833a.833.833 0 00-.834.833v5c0 .46.373.834.833.834H5V10zm5.416-6.667h-.22c-.28 0-.54.141-.692.37l-.053.091-2.697 5.393a.833.833 0 00-.082.277l-.005.096v7.107h8.165a.833.833 0 00.792-.575l.025-.095 1-5a.833.833 0 00-.654-.98l-.081-.013-.082-.004H12.5c-.879 0-1.599-.68-1.662-1.542l-.005-.125V3.75a.417.417 0 00-.342-.41l-.075-.007z" fill="#06C960"/></svg>