<svg width="20" height="20" fill="none" xmlns="http://www.w3.org/2000/svg"><path fill-rule="evenodd" clip-rule="evenodd" d="M10.982 1.899c.425.213.77.557.982.982l6.137 12.274a2.196 2.196 0 01-1.964 3.178H3.863A2.196 2.196 0 011.9 15.155L8.035 2.88a2.196 2.196 0 012.947-.982zM9.364 3.726L3.408 15.638a.71.71 0 00.636 1.029h11.912a.71.71 0 00.636-1.029L10.636 3.726a.71.71 0 00-1.272 0zM10 13.333A.833.833 0 1110 15a.833.833 0 010-1.667zm0-6.666c.46 0 .833.373.833.833v3.333a.833.833 0 11-1.666 0V7.5c0-.46.373-.833.833-.833z" fill="#D9D9D9"/></svg>