<svg width="230" height="30" fill="none" xmlns="http://www.w3.org/2000/svg"><path d="M41 26.088V3.416h4.387l3.885 11.093c.246.717.48 1.456.704 2.219.245.74.48 1.48.703 2.219h.134c.246-.74.48-1.48.703-2.219.224-.763.447-1.502.67-2.219l3.785-11.093h4.42v22.672h-3.583V15.723c0-.717.022-1.491.067-2.323l.2-2.565c.09-.855.168-1.63.235-2.323h-.134l-1.775 5.27-3.583 10.191h-2.311L45.89 13.781l-1.742-5.269h-.134c.067.693.134 1.468.201 2.323.09.855.156 1.71.201 2.565.067.832.1 1.606.1 2.323v10.365H41zm29.443-12.064l-.77 2.773h5.593l-.77-2.773a122.86 122.86 0 01-1.039-3.71 922.23 922.23 0 00-.938-3.778h-.134c-.29 1.271-.602 2.542-.937 3.813a87.636 87.636 0 01-1.005 3.675zm-7.335 12.064l7.134-22.672h4.555l7.134 22.672h-4.086l-1.709-6.136h-7.368l-1.708 6.136h-3.952zm29.937.416c-1.831 0-3.495-.45-4.99-1.352-1.496-.901-2.69-2.219-3.584-3.952-.87-1.756-1.306-3.883-1.306-6.379 0-2.473.446-4.587 1.34-6.344.915-1.78 2.132-3.131 3.65-4.056C89.673 3.474 91.348 3 93.179 3c1.384 0 2.612.289 3.684.867 1.072.577 1.954 1.248 2.646 2.01l-2.077 2.6a6.563 6.563 0 00-1.875-1.421c-.67-.37-1.43-.555-2.278-.555-1.183 0-2.244.335-3.181 1.006-.916.647-1.642 1.583-2.177 2.808-.514 1.225-.77 2.692-.77 4.402 0 2.589.546 4.623 1.64 6.102 1.094 1.456 2.557 2.184 4.388 2.184.982 0 1.853-.208 2.612-.624a8.572 8.572 0 002.077-1.699l2.076 2.53c-.893 1.064-1.92 1.884-3.081 2.462-1.139.555-2.412.832-3.818.832zm10.555-.416V3.416h3.885v9.117h8.876V3.416h3.885v22.672h-3.885V16.035h-8.876v10.053H103.6zm22.208 0V3.416h3.885v22.672h-3.885zm9.452 0V3.416h3.986l6.832 12.757 2.244 4.819h.134a181.006 181.006 0 00-.335-3.779 48.295 48.295 0 01-.167-3.952V3.416h3.717v22.672h-3.985l-6.833-12.757-2.244-4.819h-.133c.089 1.202.189 2.461.301 3.779a38.34 38.34 0 01.201 3.882v9.915h-3.718zm21.979 0V3.416h13.196v3.397h-9.311v5.79h7.871V16h-7.871v6.69h9.646v3.398h-13.531zm18.021 0V3.416h7.402c1.518 0 2.88.208 4.086.624 1.228.416 2.188 1.12 2.88 2.115.715.97 1.072 2.3 1.072 3.986 0 1.734-.402 3.132-1.206 4.195-.781 1.063-1.831 1.826-3.148 2.288l5.225 9.464h-4.354l-4.722-8.875h-3.35v8.875h-3.885zm3.885-12.064h3.115c1.496 0 2.635-.324 3.416-.97.804-.67 1.206-1.642 1.206-2.913 0-1.294-.402-2.195-1.206-2.704-.781-.531-1.92-.797-3.416-.797h-3.115v7.384zm15.936 12.064V3.416h13.195v3.397h-9.31v5.79h7.87V16h-7.87v6.69h9.645v3.398h-13.53zm22.509-12.064l-.77 2.773h5.593l-.771-2.773a124.056 124.056 0 01-1.038-3.71c-.313-1.27-.625-2.53-.938-3.778h-.134c-.29 1.271-.603 2.542-.937 3.813a88.564 88.564 0 01-1.005 3.675zm-7.335 12.064l7.134-22.672h4.555l7.133 22.672h-4.086l-1.708-6.136h-7.368l-1.708 6.136h-3.952z" fill="#1A1D1B"/><g clip-path="url(#clip0_1217_1680)"><path d="M11.337 30a.5.5 0 01-.496-.438l-.542-4.362a5.682 5.682 0 01-.915-.45 11.926 11.926 0 01-.84-.563l-4.032 1.704a.5.5 0 01-.628-.211L.22 19.319a.5.5 0 01.13-.648l3.493-2.659a3.604 3.604 0 01-.037-.507v-1.01c0-.163.012-.332.037-.507L.35 11.328a.5.5 0 01-.13-.647l3.664-6.36a.5.5 0 01.628-.212l4.033 1.704c.273-.2.56-.388.858-.563a7.5 7.5 0 01.896-.45L10.84.438A.5.5 0 0111.337 0h7.326a.5.5 0 01.496.438l.543 4.362c.323.125.628.275.914.45.287.175.567.362.84.563l4.032-1.704a.5.5 0 01.628.211l3.665 6.361a.5.5 0 01-.131.648l-3.493 2.659a3.6 3.6 0 01.037.507v1.01c0 .163-.025.332-.075.507l3.494 2.66a.5.5 0 01.13.647l-3.663 6.36a.5.5 0 01-.63.21l-3.995-1.701c-.273.2-.56.387-.858.562a7.5 7.5 0 01-.896.45l-.542 4.362a.5.5 0 01-.496.438h-7.326zm3.738-9.75c1.442 0 2.674-.512 3.694-1.538 1.02-1.024 1.53-2.262 1.53-3.712 0-1.45-.51-2.688-1.53-3.713S16.517 9.75 15.075 9.75c-1.468 0-2.706.512-3.714 1.537S9.85 13.55 9.851 15c0 1.45.503 2.688 1.51 3.712 1.007 1.026 2.245 1.538 3.714 1.538z" fill="#22B8AF"/></g><defs><clipPath id="clip0_1217_1680"><path fill="#fff" d="M0 0h30v30H0z"/></clipPath></defs></svg>