<svg width="20" height="20" viewBox="0 0 20 20" fill="none" xmlns="http://www.w3.org/2000/svg">
<path fill-rule="evenodd" clip-rule="evenodd" d="M15.8334 1.66666C17.2141 1.66666 18.3334 2.78594 18.3334 4.16666V15.8333C18.3334 17.214 17.2141 18.3333 15.8334 18.3333H4.16675C2.78604 18.3333 1.66675 17.214 1.66675 15.8333V4.16666C1.66675 2.78594 2.78604 1.66666 4.16675 1.66666H15.8334ZM15.8334 3.33332H4.16675C3.70651 3.33332 3.33341 3.70642 3.33341 4.16666V15.8333C3.33341 16.2936 3.70651 16.6667 4.16675 16.6667H15.8334C16.2937 16.6667 16.6667 16.2936 16.6667 15.8333V4.16666C16.6667 3.70642 16.2937 3.33332 15.8334 3.33332ZM6.66675 11.6667C7.12699 11.6667 7.50008 12.0398 7.50008 12.5V14.1667C7.50008 14.6269 7.12699 15 6.66675 15C6.20651 15 5.83341 14.6269 5.83341 14.1667V12.5C5.83341 12.0398 6.20651 11.6667 6.66675 11.6667ZM10.0001 4.99999C10.4603 4.99999 10.8334 5.37309 10.8334 5.83332V14.1667C10.8334 14.6269 10.4603 15 10.0001 15C9.53984 15 9.16675 14.6269 9.16675 14.1667V5.83332C9.16675 5.37309 9.53984 4.99999 10.0001 4.99999ZM13.3334 8.33332C13.7937 8.33332 14.1667 8.70642 14.1667 9.16666V14.1667C14.1667 14.6269 13.7937 15 13.3334 15C12.8732 15 12.5001 14.6269 12.5001 14.1667V9.16666C12.5001 8.70642 12.8732 8.33332 13.3334 8.33332Z" fill="#0061B7"/>
</svg>
