<svg width="14" height="14" viewBox="0 0 14 14" fill="none" xmlns="http://www.w3.org/2000/svg">
<path fill-rule="evenodd" clip-rule="evenodd" d="M7.00016 0.333313C10.6821 0.333313 13.6668 3.31808 13.6668 6.99998C13.6668 10.6819 10.6821 13.6666 7.00016 13.6666C3.31826 13.6666 0.333496 10.6819 0.333496 6.99998C0.333496 3.31808 3.31826 0.333313 7.00016 0.333313ZM7.00016 1.66665C4.05464 1.66665 1.66683 4.05446 1.66683 6.99998C1.66683 9.9455 4.05464 12.3333 7.00016 12.3333C9.94568 12.3333 12.3335 9.9455 12.3335 6.99998C12.3335 4.05446 9.94568 1.66665 7.00016 1.66665ZM9.19543 4.52858L5.66683 8.05717L4.8049 7.19524C4.54455 6.93489 4.12244 6.93489 3.86209 7.19524C3.60174 7.45559 3.60174 7.8777 3.86209 8.13805L5.19543 9.47138C5.45577 9.73173 5.87788 9.73173 6.13823 9.47138L10.1382 5.47138C10.3986 5.21103 10.3986 4.78892 10.1382 4.52858C9.87788 4.26823 9.45578 4.26823 9.19543 4.52858Z" fill="#0061B7"/>
</svg>
