<svg width="20" height="20" viewBox="0 0 20 20" fill="none" xmlns="http://www.w3.org/2000/svg">
<path fill-rule="evenodd" clip-rule="evenodd" d="M15.8337 1.66666C17.1628 1.66666 18.2532 2.70963 18.3294 4.02L18.3337 4.16666V12.5C18.3337 13.8291 17.2907 14.9195 15.9803 14.9957L15.8337 15H12.917L10.667 18C10.5095 18.21 10.2628 18.3333 10.0003 18.3333C9.77064 18.3333 9.55307 18.2389 9.39676 18.0746L9.33366 18L7.08366 15H4.16699C2.83789 15 1.74744 13.957 1.67124 12.6466L1.66699 12.5V4.16666C1.66699 2.83755 2.70997 1.7471 4.02034 1.67091L4.16699 1.66666H15.8337ZM15.8337 3.33332H4.16699C3.74062 3.33332 3.38754 3.65595 3.33928 4.06967L3.33366 4.16666V12.5C3.33366 12.9264 3.65628 13.2794 4.07001 13.3277L4.16699 13.3333H7.50033C7.73001 13.3333 7.94758 13.4277 8.10389 13.592L8.16699 13.6667L10.0003 16.1108L11.8337 13.6667C11.9715 13.4829 12.1776 13.3655 12.4028 13.339L12.5003 13.3333H15.8337C16.26 13.3333 16.6131 13.0107 16.6614 12.597L16.667 12.5V4.16666C16.667 3.74029 16.3444 3.38721 15.9306 3.33894L15.8337 3.33332ZM14.167 9.16666C14.627 9.16666 15.0003 9.53999 15.0003 9.99999C15.0003 10.4271 14.6784 10.7795 14.2641 10.8277L14.167 10.8333H5.83366C5.37366 10.8333 5.00033 10.46 5.00033 9.99999C5.00033 9.57285 5.32223 9.22043 5.73652 9.17227L5.83366 9.16666H14.167ZM14.167 5.83332C14.627 5.83332 15.0003 6.20666 15.0003 6.66666C15.0003 7.0938 14.6784 7.44621 14.2641 7.49438L14.167 7.49999H5.83366C5.37366 7.49999 5.00033 7.12666 5.00033 6.66666C5.00033 6.23951 5.32223 5.8871 5.73652 5.83893L5.83366 5.83332H14.167Z" fill="#1A1D1B"/>
</svg>
