<svg width="16" height="16" viewBox="0 0 16 16" fill="none" xmlns="http://www.w3.org/2000/svg">
<path d="M4.66634 12.6667C5.40272 12.6667 5.99967 12.0697 5.99967 11.3333C5.99967 10.597 5.40272 10 4.66634 10C3.92996 10 3.33301 10.597 3.33301 11.3333C3.33301 12.0697 3.92996 12.6667 4.66634 12.6667Z" stroke="#747474" stroke-width="1.3" stroke-linecap="round" stroke-linejoin="round"/>
<path d="M11.3333 12.6667C12.0697 12.6667 12.6667 12.0697 12.6667 11.3333C12.6667 10.597 12.0697 10 11.3333 10C10.597 10 10 10.597 10 11.3333C10 12.0697 10.597 12.6667 11.3333 12.6667Z" stroke="#747474" stroke-width="1.3" stroke-linecap="round" stroke-linejoin="round"/>
<path d="M3.33333 11.3333H2V7.33333L3.33333 4H9.33333L12 7.33333H12.6667C13.0203 7.33333 13.3594 7.47381 13.6095 7.72386C13.8595 7.97391 14 8.31304 14 8.66667V11.3333H12.6667M10 11.3333H6M2 7.33333H12M8 7.33333V4" stroke="#747474" stroke-width="1.3" stroke-linecap="round" stroke-linejoin="round"/>
</svg>
