<svg width="18" height="18" viewBox="0 0 18 18" fill="none" xmlns="http://www.w3.org/2000/svg">
<path fill-rule="evenodd" clip-rule="evenodd" d="M14.25 3C15.4926 3 16.5 4.00736 16.5 5.25V12.75C16.5 13.9926 15.4926 15 14.25 15H3.75C2.50736 15 1.5 13.9926 1.5 12.75V5.25C1.5 4.00736 2.50736 3 3.75 3H14.25ZM15 5.496L9.49388 10.3144C9.23467 10.5412 8.85829 10.5601 8.57956 10.3711L8.50612 10.3144L3 5.49675V12.75C3 13.1642 3.33579 13.5 3.75 13.5H14.25C14.6642 13.5 15 13.1642 15 12.75V5.496ZM13.86 4.5H4.1385L9 8.75342L13.86 4.5Z" fill="#0061B7"/>
</svg>
