<svg width="29" height="29" viewBox="0 0 29 29" fill="none" xmlns="http://www.w3.org/2000/svg">
<circle cx="14.5" cy="14.5" r="14.5" fill="white"/>
<path d="M18.8216 7.71582H10.1783C8.79869 7.71582 7.67627 8.83824 7.67627 10.2178V18.8612C7.67627 20.2408 8.79869 21.3635 10.1783 21.3635H18.8216C20.2012 21.3635 21.324 20.2411 21.324 18.8612V10.2178C21.324 8.83824 20.2015 7.71582 18.8216 7.71582ZM14.5 19.0324C12.0228 19.0324 10.0074 17.017 10.0074 14.5395C10.0074 12.0624 12.0228 10.0469 14.5 10.0469C16.9774 10.0469 18.9929 12.0624 18.9929 14.5395C18.9929 17.0166 16.9771 19.0324 14.5 19.0324ZM19.1373 10.9758C18.5509 10.9758 18.074 10.4989 18.074 9.91284C18.074 9.32675 18.5509 8.84987 19.1373 8.84987C19.7234 8.84987 20.2002 9.32675 20.2002 9.91284C20.2002 10.4989 19.7234 10.9758 19.1373 10.9758Z" fill="url(#paint0_linear_11_291)"/>
<path d="M14.4999 11.9453C13.0699 11.9453 11.9055 13.1091 11.9055 14.5391C11.9055 15.9697 13.0699 17.1338 14.4999 17.1338C15.9306 17.1338 17.094 15.9697 17.094 14.5391C17.094 13.1094 15.9303 11.9453 14.4999 11.9453Z" fill="url(#paint1_linear_11_291)"/>
<path d="M14.5 0C6.49219 0 0 6.49219 0 14.5C0 22.5078 6.49219 29 14.5 29C22.5078 29 29 22.5078 29 14.5C29 6.49219 22.5078 0 14.5 0ZM23.2222 18.8608C23.2222 21.2875 21.2484 23.2613 18.8217 23.2613H10.1783C7.75192 23.2613 5.77784 21.2875 5.77784 18.8608V10.2174C5.77784 7.79102 7.75192 5.81693 10.1783 5.81693H18.8217C21.2484 5.81693 23.2222 7.79102 23.2222 10.2174V18.8608Z" fill="url(#paint2_linear_11_291)"/>
<defs>
<linearGradient id="paint0_linear_11_291" x1="8.1687" y1="20.4729" x2="17.9473" y2="15.9312" gradientUnits="userSpaceOnUse">
<stop stop-color="#FFDD55"/>
<stop offset="0.5" stop-color="#FF543E"/>
<stop offset="1" stop-color="#C837AB"/>
</linearGradient>
<linearGradient id="paint1_linear_11_291" x1="12.0927" y1="16.7953" x2="15.8103" y2="15.0686" gradientUnits="userSpaceOnUse">
<stop stop-color="#FFDD55"/>
<stop offset="0.5" stop-color="#FF543E"/>
<stop offset="1" stop-color="#C837AB"/>
</linearGradient>
<linearGradient id="paint2_linear_11_291" x1="1.04636" y1="27.1076" x2="21.8249" y2="17.4569" gradientUnits="userSpaceOnUse">
<stop stop-color="#FFDD55"/>
<stop offset="0.5" stop-color="#FF543E"/>
<stop offset="1" stop-color="#C837AB"/>
</linearGradient>
</defs>
</svg>
