<svg width="20" height="20" viewBox="0 0 20 20" fill="none" xmlns="http://www.w3.org/2000/svg">
<g id="tabler:login">
<g id="Group">
<path id="Vector" d="M8.33333 6.66666V4.99999C8.33333 4.55797 8.50893 4.13404 8.82149 3.82148C9.13405 3.50892 9.55797 3.33333 10 3.33333H15.8333C16.2754 3.33333 16.6993 3.50892 17.0118 3.82148C17.3244 4.13404 17.5 4.55797 17.5 4.99999V15C17.5 15.442 17.3244 15.8659 17.0118 16.1785C16.6993 16.4911 16.2754 16.6667 15.8333 16.6667H10C9.55797 16.6667 9.13405 16.4911 8.82149 16.1785C8.50893 15.8659 8.33333 15.442 8.33333 15V13.3333" stroke="#111111" stroke-width="1.66667" stroke-linecap="round" stroke-linejoin="round"/>
<path id="Vector_2" d="M3.33366 10H14.167M14.167 10L11.667 7.5M14.167 10L11.667 12.5" stroke="#111111" stroke-width="1.66667" stroke-linecap="round" stroke-linejoin="round"/>
</g>
</g>
</svg>
