<svg width="20" height="20" viewBox="0 0 20 20" fill="none" xmlns="http://www.w3.org/2000/svg">
<path fill-rule="evenodd" clip-rule="evenodd" d="M4.16668 16.6667C3.5798 16.6667 3.1873 16.0815 3.38317 15.5488L3.42133 15.4606L4.38418 13.5349C4.74867 12.806 4.95591 12.0096 4.99371 11.1974L5.00002 10.9262V8.33332C5.00002 5.85577 6.802 3.79909 9.16684 3.40243L9.16668 2.49999C9.16668 2.03975 9.53978 1.66666 10 1.66666C10.4603 1.66666 10.8334 2.03975 10.8334 2.49999L10.834 3.40257C13.1328 3.78855 14.8995 5.74309 14.9959 8.12788L15 8.33332V10.9262C15 11.7412 15.1708 12.5462 15.5002 13.2895L15.6159 13.5349L16.5787 15.4606C16.8412 15.9856 16.4934 16.5983 15.9293 16.6613L15.8334 16.6667H11.6667C11.6667 17.5871 10.9205 18.3333 10 18.3333C9.07954 18.3333 8.33335 17.5871 8.33335 16.6667H4.16668ZM10 4.99999C8.21485 4.99999 6.75745 6.4033 6.67076 8.16696L6.66668 8.33332V10.9262C6.66668 11.9935 6.43889 13.0474 5.99985 14.0178L5.87489 14.2803L5.51505 15H14.485L14.1251 14.2803C13.6478 13.3257 13.3803 12.2812 13.339 11.2169L13.3334 10.9262V8.33332C13.3334 6.49237 11.841 4.99999 10 4.99999Z" fill="#0061B7"/>
</svg>
