<svg width="16" height="16" viewBox="0 0 16 16" fill="none" xmlns="http://www.w3.org/2000/svg">
<path d="M4.00033 7.33337C3.86847 7.33337 3.73958 7.37247 3.62995 7.44573C3.52031 7.51898 3.43486 7.6231 3.38441 7.74492C3.33395 7.86674 3.32075 8.00078 3.34647 8.1301C3.37219 8.25942 3.43569 8.37821 3.52892 8.47144C3.62216 8.56468 3.74094 8.62817 3.87027 8.6539C3.99959 8.67962 4.13363 8.66642 4.25545 8.61596C4.37727 8.5655 4.48138 8.48005 4.55464 8.37042C4.62789 8.26079 4.66699 8.13189 4.66699 8.00004C4.66699 7.82323 4.59675 7.65366 4.47173 7.52864C4.34671 7.40361 4.17714 7.33337 4.00033 7.33337ZM12.0003 7.33337C11.8685 7.33337 11.7396 7.37247 11.6299 7.44573C11.5203 7.51898 11.4349 7.6231 11.3844 7.74492C11.3339 7.86674 11.3207 8.00078 11.3465 8.1301C11.3722 8.25942 11.4357 8.37821 11.5289 8.47144C11.6222 8.56468 11.7409 8.62817 11.8703 8.6539C11.9996 8.67962 12.1336 8.66642 12.2554 8.61596C12.3773 8.5655 12.4814 8.48005 12.5546 8.37042C12.6279 8.26079 12.667 8.13189 12.667 8.00004C12.667 7.82323 12.5968 7.65366 12.4717 7.52864C12.3467 7.40361 12.1771 7.33337 12.0003 7.33337ZM13.3337 3.33337H2.66699C2.13656 3.33337 1.62785 3.54409 1.25278 3.91916C0.877706 4.29423 0.666992 4.80294 0.666992 5.33337V10.6667C0.666992 11.1971 0.877706 11.7058 1.25278 12.0809C1.62785 12.456 2.13656 12.6667 2.66699 12.6667H13.3337C13.8641 12.6667 14.3728 12.456 14.7479 12.0809C15.1229 11.7058 15.3337 11.1971 15.3337 10.6667V5.33337C15.3337 4.80294 15.1229 4.29423 14.7479 3.91916C14.3728 3.54409 13.8641 3.33337 13.3337 3.33337ZM14.0003 10.6667C14.0003 10.8435 13.9301 11.0131 13.8051 11.1381C13.68 11.2631 13.5105 11.3334 13.3337 11.3334H2.66699C2.49018 11.3334 2.32061 11.2631 2.19559 11.1381C2.07056 11.0131 2.00033 10.8435 2.00033 10.6667V5.33337C2.00033 5.15656 2.07056 4.98699 2.19559 4.86197C2.32061 4.73695 2.49018 4.66671 2.66699 4.66671H13.3337C13.5105 4.66671 13.68 4.73695 13.8051 4.86197C13.9301 4.98699 14.0003 5.15656 14.0003 5.33337V10.6667ZM8.00033 6.00004C7.60476 6.00004 7.21808 6.11734 6.88918 6.3371C6.56029 6.55686 6.30394 6.86922 6.15257 7.23467C6.00119 7.60013 5.96158 8.00226 6.03875 8.39022C6.11593 8.77818 6.30641 9.13455 6.58611 9.41425C6.86582 9.69396 7.22218 9.88444 7.61015 9.96161C7.99811 10.0388 8.40024 9.99917 8.76569 9.8478C9.13114 9.69642 9.4435 9.44008 9.66327 9.11118C9.88303 8.78228 10.0003 8.3956 10.0003 8.00004C10.0003 7.46961 9.78961 6.9609 9.41454 6.58583C9.03947 6.21075 8.53076 6.00004 8.00033 6.00004ZM8.00033 8.66671C7.86847 8.66671 7.73958 8.62761 7.62995 8.55435C7.52031 8.4811 7.43486 8.37698 7.38441 8.25516C7.33395 8.13335 7.32075 7.9993 7.34647 7.86998C7.37219 7.74066 7.43569 7.62187 7.52892 7.52864C7.62216 7.4354 7.74094 7.37191 7.87027 7.34618C7.99959 7.32046 8.13363 7.33366 8.25545 7.38412C8.37727 7.43458 8.48138 7.52003 8.55464 7.62966C8.62789 7.73929 8.66699 7.86819 8.66699 8.00004C8.66699 8.17685 8.59675 8.34642 8.47173 8.47144C8.34671 8.59647 8.17714 8.66671 8.00033 8.66671Z" fill="#747474"/>
</svg>
