<svg width="20" height="20" viewBox="0 0 20 20" fill="none" xmlns="http://www.w3.org/2000/svg">
<path fill-rule="evenodd" clip-rule="evenodd" d="M1.67187 5.9254L2.14888 10.2184C2.40207 12.4972 3.68372 14.535 5.62801 15.7502L9.55844 18.2067C9.82867 18.3756 10.1715 18.3756 10.4418 18.2067L14.3722 15.7502C16.3165 14.535 17.5981 12.4972 17.8513 10.2184L18.3283 5.9254C18.3684 5.56454 18.1703 5.21925 17.8385 5.07183L10.3385 1.73951C10.123 1.6438 9.87717 1.6438 9.66175 1.73951L2.16175 5.07183C1.82994 5.21925 1.63178 5.56454 1.67187 5.9254ZM3.39568 6.34735L10.0001 3.41294L16.6045 6.34735L16.1949 10.0344C15.9979 11.8068 15.0011 13.3917 13.4889 14.3369L10.0001 16.5173L6.51134 14.3369C4.99911 13.3917 4.00228 11.8068 3.80535 10.0344L3.39568 6.34735Z" fill="#0061B7"/>
</svg>
