<svg width="16" height="16" viewBox="0 0 16 16" fill="none" xmlns="http://www.w3.org/2000/svg">
<path d="M13.2663 8.43997C13.1594 8.31831 13.1005 8.16191 13.1005 7.99997C13.1005 7.83803 13.1594 7.68163 13.2663 7.55997L14.1196 6.59997C14.2136 6.49508 14.272 6.36311 14.2864 6.22298C14.3008 6.08284 14.2704 5.94176 14.1996 5.81997L12.8663 3.5133C12.7962 3.39165 12.6895 3.29522 12.5614 3.23776C12.4333 3.1803 12.2904 3.16474 12.1529 3.1933L10.8996 3.44664C10.7401 3.47959 10.5741 3.45303 10.4329 3.37197C10.2916 3.29091 10.1849 3.16096 10.1329 3.00664L9.72627 1.78664C9.68155 1.65422 9.59634 1.53921 9.48269 1.45787C9.36904 1.37652 9.2327 1.33294 9.09294 1.3333H6.42627C6.28089 1.32572 6.13703 1.36592 6.01665 1.44778C5.89627 1.52964 5.80599 1.64865 5.75961 1.78664L5.38627 3.00664C5.33427 3.16096 5.22759 3.29091 5.08635 3.37197C4.94511 3.45303 4.77908 3.47959 4.61961 3.44664L3.33294 3.1933C3.20264 3.17489 3.06981 3.19545 2.95117 3.2524C2.83254 3.30934 2.73341 3.40012 2.66627 3.5133L1.33294 5.81997C1.26038 5.9404 1.22775 6.08069 1.23973 6.22079C1.2517 6.36088 1.30766 6.4936 1.39961 6.59997L2.24627 7.55997C2.35315 7.68163 2.41209 7.83803 2.41209 7.99997C2.41209 8.16191 2.35315 8.31831 2.24627 8.43997L1.39961 9.39997C1.30766 9.50634 1.2517 9.63906 1.23973 9.77916C1.22775 9.91925 1.26038 10.0595 1.33294 10.18L2.66627 12.4866C2.73634 12.6083 2.84302 12.7047 2.97111 12.7622C3.0992 12.8196 3.24215 12.8352 3.37961 12.8066L4.63294 12.5533C4.79242 12.5204 4.95844 12.5469 5.09968 12.628C5.24092 12.709 5.34761 12.839 5.39961 12.9933L5.80627 14.2133C5.85266 14.3513 5.94294 14.4703 6.06332 14.5522C6.1837 14.634 6.32756 14.6742 6.47294 14.6666H9.13961C9.27937 14.667 9.41571 14.6234 9.52936 14.5421C9.64301 14.4607 9.72822 14.3457 9.77294 14.2133L10.1796 12.9933C10.2316 12.839 10.3383 12.709 10.4795 12.628C10.6208 12.5469 10.7868 12.5204 10.9463 12.5533L12.1996 12.8066C12.3371 12.8352 12.48 12.8196 12.6081 12.7622C12.7362 12.7047 12.8429 12.6083 12.9129 12.4866L14.2463 10.18C14.3171 10.0582 14.3474 9.9171 14.3331 9.77697C14.3187 9.63684 14.2603 9.50486 14.1663 9.39997L13.2663 8.43997ZM12.2729 9.3333L12.8063 9.9333L11.9529 11.4133L11.1663 11.2533C10.6861 11.1552 10.1867 11.2367 9.76267 11.4825C9.33869 11.7283 9.0197 12.1212 8.86627 12.5866L8.61294 13.3333H6.90627L6.66627 12.5733C6.51284 12.1079 6.19386 11.715 5.76988 11.4692C5.34589 11.2234 4.84642 11.1418 4.36627 11.24L3.57961 11.4L2.71294 9.92664L3.24627 9.32664C3.57424 8.95996 3.75556 8.48526 3.75556 7.9933C3.75556 7.50135 3.57424 7.02665 3.24627 6.65997L2.71294 6.05997L3.56627 4.5933L4.35294 4.7533C4.83309 4.85145 5.33256 4.76989 5.75654 4.5241C6.18053 4.27832 6.49951 3.88541 6.65294 3.41997L6.90627 2.66664H8.61294L8.86627 3.42664C9.0197 3.89208 9.33869 4.28498 9.76267 4.53077C10.1867 4.77656 10.6861 4.85812 11.1663 4.75997L11.9529 4.59997L12.8063 6.07997L12.2729 6.67997C11.9486 7.04581 11.7696 7.51776 11.7696 8.00664C11.7696 8.49552 11.9486 8.96746 12.2729 9.3333ZM7.75961 5.3333C7.23219 5.3333 6.71662 5.4897 6.27808 5.78272C5.83955 6.07574 5.49776 6.49221 5.29593 6.97948C5.09409 7.46675 5.04128 8.00293 5.14418 8.52021C5.24707 9.03749 5.50105 9.51265 5.87399 9.88559C6.24693 10.2585 6.72208 10.5125 7.23936 10.6154C7.75665 10.7183 8.29282 10.6655 8.78009 10.4636C9.26736 10.2618 9.68384 9.92002 9.97686 9.48149C10.2699 9.04296 10.4263 8.52739 10.4263 7.99997C10.4263 7.29273 10.1453 6.61445 9.64522 6.11435C9.14513 5.61426 8.46685 5.3333 7.75961 5.3333ZM7.75961 9.3333C7.4959 9.3333 7.23811 9.25511 7.01884 9.1086C6.79958 8.96209 6.62868 8.75385 6.52777 8.51022C6.42685 8.26658 6.40044 7.99849 6.45189 7.73985C6.50334 7.48121 6.63033 7.24363 6.8168 7.05716C7.00327 6.87069 7.24084 6.7437 7.49949 6.69226C7.75813 6.64081 8.02622 6.66721 8.26985 6.76813C8.51348 6.86905 8.72172 7.03995 8.86823 7.25921C9.01474 7.47848 9.09294 7.73626 9.09294 7.99997C9.09294 8.35359 8.95246 8.69273 8.70241 8.94278C8.45237 9.19283 8.11323 9.3333 7.75961 9.3333Z" fill="#747474"/>
</svg>
