<svg width="16" height="16" viewBox="0 0 16 16" fill="none" xmlns="http://www.w3.org/2000/svg">
<path d="M11.4295 6.50053C11.4295 10.6888 5.14316 10.6888 5.14316 6.50053H6.71474C6.71474 8.59858 9.85789 8.59858 9.85789 6.50053M14.5726 13.5726V15.93H2V13.5726C2 11.4746 6.18826 10.4295 8.28632 10.4295C10.3844 10.4295 14.5726 11.4746 14.5726 13.5726ZM13.0796 13.5726C13.0796 13.0697 10.6201 11.9225 8.28632 11.9225C5.95252 11.9225 3.493 13.0697 3.493 13.5726V14.437H13.0796M8.67921 1C8.89923 1 9.07211 1.17287 9.07211 1.39289V3.75026H9.85789V1.78579C10.414 2.04315 10.8799 2.46172 11.1952 2.98717C11.5105 3.51262 11.6605 4.1207 11.6259 4.7325C11.6259 4.7325 12.176 4.84251 12.2153 5.71474H4.35737C4.35737 4.84251 4.94671 4.7325 4.94671 4.7325C4.9121 4.1207 5.06216 3.51262 5.37743 2.98717C5.69271 2.46172 6.15863 2.04315 6.71474 1.78579V3.75026H7.50053V1.39289C7.50053 1.17287 7.6734 1 7.89342 1" fill="#747474"/>
</svg>
