<svg width="20" height="20" viewBox="0 0 20 20" fill="none" xmlns="http://www.w3.org/2000/svg">
<path fill-rule="evenodd" clip-rule="evenodd" d="M15.5105 3.50801L15.589 3.57734L18.089 6.07739C18.1115 6.09991 18.1327 6.1237 18.1526 6.14866L18.2215 6.24971L18.2535 6.31078L18.2837 6.38332L18.3102 6.47203L18.3275 6.56947L18.3326 6.63915L18.3316 6.71586L18.3203 6.81234L18.2916 6.9268L18.255 7.01936L18.2114 7.10061L18.1558 7.18065L18.089 7.25594L15.589 9.75601C15.2636 10.0815 14.7359 10.0815 14.4105 9.75601C14.1101 9.4556 14.087 8.98289 14.3412 8.65597L14.4105 8.57746L15.4872 7.50009L7.49974 7.50003C7.07238 7.50003 6.72015 7.17833 6.67202 6.76388L6.66641 6.66665C6.66641 6.20641 7.03951 5.83332 7.49974 5.83332L15.4872 5.83342L14.4105 4.75588C14.1101 4.45547 14.087 3.98276 14.3412 3.65584L14.4105 3.57734C14.6859 3.30196 15.106 3.25959 15.4259 3.45024L15.5105 3.50801ZM4.41036 16.4227L1.91036 13.9226L1.82988 13.8293L1.77034 13.7369L1.72553 13.6426L1.69605 13.5549L1.67903 13.479L1.66772 13.3825V13.2841L1.67901 13.1878L1.70784 13.0727L1.7241 13.0277L1.75683 12.9551L1.788 12.8994L1.83388 12.8319L1.87757 12.7788L1.91036 12.7441L4.41036 10.244L4.48886 10.1747C4.78853 9.94166 5.2107 9.94166 5.51036 10.1747L5.58887 10.244L5.65819 10.3225C5.8912 10.6222 5.8912 11.0444 5.65819 11.344L5.58887 11.4225L4.51211 12.5001L12.4996 12.5C12.927 12.5 13.2792 12.8217 13.3273 13.2361L13.3329 13.3333L13.3273 13.4305C13.2829 13.8131 12.9794 14.1167 12.5968 14.1611L12.4996 14.1667L4.51211 14.1668L5.58887 15.2441L5.65819 15.3226C5.91238 15.6496 5.88927 16.1223 5.58887 16.4227C5.28847 16.7231 4.81577 16.7462 4.48886 16.492L4.41036 16.4227Z" fill="#0061B7"/>
</svg>
