<svg width="20" height="20" viewBox="0 0 20 20" fill="none" xmlns="http://www.w3.org/2000/svg">
<path fill-rule="evenodd" clip-rule="evenodd" d="M4.1678 1.66663C2.78709 1.66663 1.6678 2.78591 1.6678 4.16663V9.16663C1.6678 10.5473 2.78709 11.6666 4.1678 11.6666H5.31863L7.96179 16.9513C8.36036 17.7485 9.15061 18.2693 10.0317 18.3278L10.1979 18.3333H10.4178C11.5224 18.3333 12.4262 17.4737 12.4967 16.3869L12.5011 16.25V11.6666H15.833C15.9976 11.6666 16.1619 11.6504 16.3233 11.6181C17.6288 11.357 18.4919 10.123 18.3091 8.82121L18.2845 8.67634L17.2845 3.67634C17.0605 2.55647 16.1088 1.73729 14.9811 1.67097L14.833 1.66663H4.1678ZM5.00113 9.99996H4.1678C3.70756 9.99996 3.33447 9.62686 3.33447 9.16663V4.16663C3.33447 3.70639 3.70756 3.33329 4.1678 3.33329H5.00113V9.99996ZM10.4178 16.6666H10.1979C9.91728 16.6666 9.65812 16.5257 9.50485 16.2961L9.4525 16.206L6.75578 10.8125C6.71238 10.7257 6.68459 10.6323 6.67341 10.5364L6.6678 10.4398V3.33329H14.833C15.1971 3.33329 15.5149 3.56889 15.6253 3.90819L15.6502 4.0032L16.6502 9.0032C16.7404 9.45449 16.4477 9.89352 15.9964 9.98378L15.9151 9.9959L15.833 9.99996H12.5011C11.6225 9.99996 10.9027 10.6799 10.839 11.5422L10.8345 11.6666V16.25C10.8345 16.4545 10.6871 16.6246 10.4927 16.6599L10.4178 16.6666Z" fill="#D9D9D9"/>
</svg>
