<svg width="18" height="18" viewBox="0 0 18 18" fill="none" xmlns="http://www.w3.org/2000/svg">
<path fill-rule="evenodd" clip-rule="evenodd" d="M8.99999 0.666626C13.6024 0.666626 17.3333 4.39759 17.3333 8.99996C17.3333 13.6023 13.6024 17.3333 8.99999 17.3333C4.39762 17.3333 0.666656 13.6023 0.666656 8.99996C0.666656 4.39759 4.39762 0.666626 8.99999 0.666626ZM8.99999 2.33329C5.31809 2.33329 2.33332 5.31806 2.33332 8.99996C2.33332 12.6819 5.31809 15.6666 8.99999 15.6666C12.6819 15.6666 15.6667 12.6819 15.6667 8.99996C15.6667 5.31806 12.6819 2.33329 8.99999 2.33329ZM8.99999 12.3333C9.46023 12.3333 9.83332 12.7064 9.83332 13.1666C9.83332 13.6269 9.46023 14 8.99999 14C8.53975 14 8.16666 13.6269 8.16666 13.1666C8.16666 12.7064 8.53975 12.3333 8.99999 12.3333ZM8.99999 3.99996C10.8409 3.99996 12.3333 5.49234 12.3333 7.33329C12.3333 8.82897 11.3482 10.0946 9.99149 10.5167L9.83332 10.5616V10.6666C9.83332 11.1269 9.46023 11.5 8.99999 11.5C8.57263 11.5 8.2204 11.1783 8.17226 10.7638L8.16666 10.6666V9.83329C8.16666 9.40593 8.48836 9.0537 8.90281 9.00557L9.12438 8.99539C9.98676 8.93176 10.6667 8.21193 10.6667 7.33329C10.6667 6.41282 9.92046 5.66663 8.99999 5.66663C8.07951 5.66663 7.33332 6.41282 7.33332 7.33329C7.33332 7.79353 6.96023 8.16663 6.49999 8.16663C6.03975 8.16663 5.66666 7.79353 5.66666 7.33329C5.66666 5.49234 7.15904 3.99996 8.99999 3.99996Z" fill="#D9D9D9"/>
</svg>
